<?xml version="1.0" encoding="utf-8"?>
<!-- Generator: Adobe Illustrator 16.0.0, SVG Export Plug-In . SVG Version: 6.00 Build 0)  -->
<!DOCTYPE svg PUBLIC "-//W3C//DTD SVG 1.1//EN" "http://www.w3.org/Graphics/SVG/1.1/DTD/svg11.dtd">
<svg version="1.1" id="Layer_1" xmlns="http://www.w3.org/2000/svg" xmlns:xlink="http://www.w3.org/1999/xlink" x="0px" y="0px"
	 width="48px" height="46px" viewBox="0 0 48 46" style="enable-background:new 0 0 48 46;" xml:space="preserve">
<style type="text/css">
<![CDATA[
	.st0{fill:#202020;}
	.st1{fill:none;}
]]>
</style>
<g>
	<g>
		<path d="M11.7,37l8-14.2l4.4,5.6l4.5-3.9L32.8,38l6.5-7.5l7.3,7.2l1.4-1.4l-8.8-8.8L33.6,34l-3.5-10.9l2-1.8l5.4,5.3l9.7-20.3
			l-1.8-0.9l-8.4,17.7l-4.7-4.7l-2.8,2.4l-4-12.6l-6,10.7l-5.3-6.8L2,27.2V0H0v46h46.3v-2H2v-7H11.7z M24.9,13.5l2.9,9l-3.5,3.1
			l-3.6-4.6L24.9,13.5z M14.1,15.6l4.2,5.5L10.5,35H2v-4.6L14.1,15.6z"/>
	</g>
</g>
</svg>
