<?xml version="1.0" encoding="utf-8"?>
<!-- Generator: Adobe Illustrator 16.0.0, SVG Export Plug-In . SVG Version: 6.00 Build 0)  -->
<!DOCTYPE svg PUBLIC "-//W3C//DTD SVG 1.1//EN" "http://www.w3.org/Graphics/SVG/1.1/DTD/svg11.dtd">
<svg version="1.1" id="Layer_1" xmlns="http://www.w3.org/2000/svg" xmlns:xlink="http://www.w3.org/1999/xlink" x="0px" y="0px"
	 width="46px" height="37px" viewBox="0 0 46 37" style="enable-background:new 0 0 46 37;" xml:space="preserve">
<g>
	<g>
		<path d="M45.7,29.3c-0.4-0.4-1-0.4-1.4,0L40,33.6V9c0-5-4-9-9-9c-4.6,0-8.4,3.5-8.9,8H22v20c0,3.9-3.1,7-7,7c-3.9,0-7-3.1-7-7V3.4
			l4.3,4.3C12.5,7.9,12.7,8,13,8s0.5-0.1,0.7-0.3c0.4-0.4,0.4-1,0-1.4l-6-6c-0.4-0.4-1-0.4-1.4,0l-6,6c-0.4,0.4-0.4,1,0,1.4
			C0.5,7.9,0.7,8,1,8s0.5-0.1,0.7-0.3L6,3.4V28c0,5,4,9,9,9c4.6,0,8.4-3.5,8.9-8H24V9c0-3.9,3.1-7,7-7c3.9,0,7,3.1,7,7v24.6
			l-4.3-4.3c-0.4-0.4-1-0.4-1.4,0c-0.4,0.4-0.4,1,0,1.4l6,6c0.2,0.2,0.5,0.3,0.7,0.3s0.5-0.1,0.7-0.3l6-6
			C46.1,30.3,46.1,29.7,45.7,29.3z"/>
	</g>
</g>
</svg>
