<?xml version="1.0" encoding="utf-8"?>
<!-- Generator: Adobe Illustrator 19.1.0, SVG Export Plug-In . SVG Version: 6.00 Build 0)  -->
<svg version="1.1" id="Layer_1" xmlns="http://www.w3.org/2000/svg" xmlns:xlink="http://www.w3.org/1999/xlink" x="0px" y="0px"
	 viewBox="-281 375.2 48 42.8" style="enable-background:new -281 375.2 48 42.8;" xml:space="preserve">
<path d="M-242,413.8l-10-17.1c-0.8-1.4-1.5-3.9-1.5-5.5v-13.8c0-0.3,0-0.6-0.1-1l-0.1-0.6h-6.6l-0.1,0.6c-0.1,0.4-0.1,0.7-0.1,1
	v14.1c0,1.6-0.7,4.1-1.5,5.5l-9.8,16.9c-0.6,1-0.6,2-0.2,2.7c0.4,0.8,1.3,1.2,2.5,1.2h25.3c1.1,0,2-0.4,2.5-1.2
	C-241.3,415.7-241.4,414.7-242,413.8z M-260.7,397.7c1-1.6,1.7-4.4,1.7-6.3v-14.1h4v13.8c0,1.9,0.7,4.7,1.7,6.3l2.1,3.7h-11.5
	L-260.7,397.7z M-243.1,415.7c-0.2,0.3-0.5,0.4-1.1,0.4h-25.3c-0.5,0-0.9-0.1-1.1-0.4c-0.2-0.3-0.1-0.7,0.2-1.1l6.9-11.9h13.3
	l6.9,11.9C-243.1,415-243,415.4-243.1,415.7z"/>
</svg>
