<?xml version="1.0" encoding="utf-8"?>
<!-- Generator: Adobe Illustrator 19.1.0, SVG Export Plug-In . SVG Version: 6.00 Build 0)  -->
<svg version="1.1" id="Layer_1" xmlns="http://www.w3.org/2000/svg" xmlns:xlink="http://www.w3.org/1999/xlink" x="0px" y="0px"
	 width="46px" height="46px" viewBox="0 0 46 46" enable-background="new 0 0 46 46" xml:space="preserve">
<path fill="#010101" d="M39.1,41.3L28.3,22.9c-0.9-1.5-1.6-4.2-1.6-5.9V2.1c0-0.3,0-0.6-0.1-1.1l-0.1-0.6h-7.1L19.2,1
	c-0.1,0.4-0.1,0.8-0.1,1.1v15.2c0,1.7-0.8,4.4-1.6,5.9L6.9,41.4c-0.6,1.1-0.6,2.2-0.2,2.9c0.4,0.9,1.4,1.3,2.7,1.3h27.3
	c1.2,0,2.2-0.4,2.7-1.3C39.8,43.4,39.7,42.3,39.1,41.3z M18.9,24c1.1-1.7,1.8-4.7,1.8-6.8V2H25v14.9c0,2,0.8,5.1,1.8,6.8l2.3,4H16.7
	L18.9,24z M37.9,43.4c-0.2,0.3-0.5,0.4-1.2,0.4H9.4c-0.5,0-1-0.1-1.2-0.4C8,43,8.1,42.6,8.5,42.2l7.4-12.8h14.3l7.4,12.8
	C37.9,42.6,38,43,37.9,43.4z"/>
</svg>
