<svg xmlns="http://www.w3.org/2000/svg" width="47" height="48" viewBox="0 0 47 48"><style type="text/css"><![CDATA[
	.st0{fill:#202020;}
]]></style><path d="M23.5 24c13.2 0 23.5-5.3 23.5-12s-10.3-12-23.5-12-23.5 5.3-23.5 12 10.3 12 23.5 12zm0-22c11.7 0 21.5 4.6 21.5 10s-9.8 10-21.5 10-21.5-4.6-21.5-10 9.8-10 21.5-10zm0 28c-11.7 0-21.5-4.6-21.5-10h-2c0 6.7 10.3 12 23.5 12s23.5-5.3 23.5-12h-2c0 5.4-9.8 10-21.5 10zm0 8c-11.7 0-21.5-4.6-21.5-10h-2c0 6.7 10.3 12 23.5 12s23.5-5.3 23.5-12h-2c0 5.4-9.8 10-21.5 10zm0 8c-11.7 0-21.5-4.6-21.5-10h-2c0 6.7 10.3 12 23.5 12s23.5-5.3 23.5-12h-2c0 5.4-9.8 10-21.5 10z"/></svg>