<?xml version="1.0" encoding="utf-8"?>
<!-- Generator: Adobe Illustrator 19.1.0, SVG Export Plug-In . SVG Version: 6.00 Build 0)  -->
<svg version="1.1" id="Layer_1" xmlns="http://www.w3.org/2000/svg" xmlns:xlink="http://www.w3.org/1999/xlink" x="0px" y="0px"
	 viewBox="-281 375.2 48 42.8" style="enable-background:new -281 375.2 48 42.8;" xml:space="preserve">
<g>
	<path d="M-241,378.2c0-1.4-1.2-2.6-2.6-2.6h-26.5c-1.4,0-2.6,1.2-2.6,2.6V415c0,1.4,1.2,2.6,2.6,2.6h16.3c0.2,0,0.4-0.1,0.6-0.2
		l12-12c0.2-0.2,0.2-0.4,0.2-0.6h0V378.2z M-253.8,403.9c-0.5,0-0.9,0.4-0.9,0.9v11.1h-15.4c-0.5,0-0.9-0.4-0.9-0.9v-36.8
		c0-0.5,0.4-0.9,0.9-0.9h26.5c0.5,0,0.9,0.4,0.9,0.9v25.7H-253.8z M-252.9,414.7v-9.1h9.1L-252.9,414.7z"/>
	<rect x="-267.5" y="383.4" width="21.4" height="1.7"/>
	<rect x="-267.5" y="390.2" width="21.4" height="1.7"/>
	<rect x="-267.5" y="397.1" width="21.4" height="1.7"/>
</g>
</svg>
