<?xml version="1.0" encoding="utf-8"?>
<!-- Generator: Adobe Illustrator 19.1.0, SVG Export Plug-In . SVG Version: 6.00 Build 0)  -->
<svg version="1.1" id="Layer_1" xmlns="http://www.w3.org/2000/svg" xmlns:xlink="http://www.w3.org/1999/xlink" x="0px" y="0px"
	 width="46px" height="46px" viewBox="0 0 46 46" enable-background="new 0 0 46 46" xml:space="preserve">
<path fill="#010101" d="M40.1,3.2c0-1.5-1.3-2.8-2.8-2.8H8.8C7.3,0.4,6,1.7,6,3.2v39.5c0,1.5,1.3,2.8,2.8,2.8h17.5
	c0.2,0,0.4-0.1,0.6-0.2l12.9-12.9c0.2-0.2,0.2-0.4,0.2-0.6l0,0C40.1,31.8,40.1,3.2,40.1,3.2z M26.3,30.8c-0.5,0-1,0.4-1,1v11.9H8.8
	c-0.5,0-1-0.4-1-1V3.2c0-0.5,0.4-1,1-1h28.5c0.5,0,1,0.4,1,1v27.6L26.3,30.8L26.3,30.8z M27.3,42.4v-9.8h9.8L27.3,42.4z M11.6,8.8
	h23v1.8h-23V8.8z M11.6,16.1h23V18h-23V16.1z M11.6,23.5h23v1.8h-23V23.5z"/>
</svg>
