<?xml version="1.0" encoding="utf-8"?>
<!-- Generator: Adobe Illustrator 16.0.0, SVG Export Plug-In . SVG Version: 6.00 Build 0)  -->
<!DOCTYPE svg PUBLIC "-//W3C//DTD SVG 1.1//EN" "http://www.w3.org/Graphics/SVG/1.1/DTD/svg11.dtd">
<svg version="1.1" id="Layer_1" xmlns="http://www.w3.org/2000/svg" xmlns:xlink="http://www.w3.org/1999/xlink" x="0px" y="0px"
	 width="39px" height="52px" viewBox="0 0 39 52" style="enable-background:new 0 0 39 52;" xml:space="preserve">
<style type="text/css">
<![CDATA[
	.st0{fill-rule:evenodd;clip-rule:evenodd;}
]]>
</style>
<g>
	<g>
		<path d="M14.6,28.3c0.3-0.5,0.4-1.1,0.4-1.8v-2c0-0.8,0.1-1.5,0.4-2c0.3-0.5,0.7-0.9,1.3-1.1L16.3,20c-1.2,0.4-2.1,0.9-2.7,1.7
			c-0.5,0.8-0.8,1.7-0.8,2.8v2c0,0.7-0.2,1.2-0.5,1.6c-0.3,0.4-0.8,0.6-1.4,0.6v1.7c0.6,0,1.1,0.2,1.4,0.6c0.3,0.4,0.5,0.9,0.5,1.6
			v2c0,1.1,0.3,2,0.8,2.8c0.5,0.8,1.4,1.3,2.7,1.7l0.5-1.4c-0.6-0.2-1.1-0.6-1.3-1.1c-0.3-0.5-0.4-1.2-0.4-2v-2
			c0-0.7-0.1-1.3-0.4-1.8c-0.3-0.5-0.7-0.9-1.2-1.2C14,29.2,14.4,28.8,14.6,28.3z M22.2,21.3c0.6,0.2,1.1,0.6,1.3,1.1
			c0.3,0.5,0.4,1.2,0.4,2v2c0,0.7,0.1,1.3,0.4,1.8c0.3,0.5,0.7,0.9,1.3,1.2c-0.6,0.3-1,0.7-1.3,1.2s-0.4,1.1-0.4,1.8v2
			c0,0.8-0.1,1.5-0.4,2c-0.3,0.5-0.7,0.9-1.3,1.1l0.5,1.4c1.2-0.4,2.1-0.9,2.7-1.7c0.5-0.8,0.8-1.7,0.8-2.8v-2
			c0-0.7,0.2-1.2,0.5-1.6c0.3-0.4,0.8-0.6,1.4-0.6v-1.7c-0.6,0-1.1-0.2-1.4-0.6c-0.3-0.4-0.5-0.9-0.5-1.6v-2c0-1.1-0.3-2-0.8-2.8
			c-0.5-0.8-1.4-1.3-2.7-1.7L22.2,21.3z M39,15c0-0.3-0.1-0.5-0.3-0.7l-14-14C24.5,0.1,24.2,0,24,0H3C1.3,0,0,1.3,0,3v46
			c0,1.7,1.3,3,3,3h33c1.7,0,3-1.3,3-3L39,15L39,15z M25,3.4L35.6,14H25V3.4z M37,49c0,0.6-0.4,1-1,1H3c-0.6,0-1-0.4-1-1V3
			c0-0.6,0.4-1,1-1h20v13c0,0.6,0.4,1,1,1h13V49z"/>
	</g>
</g>
</svg>
