<?xml version="1.0" encoding="utf-8"?>
<!-- Generator: Adobe Illustrator 16.0.0, SVG Export Plug-In . SVG Version: 6.00 Build 0)  -->
<!DOCTYPE svg PUBLIC "-//W3C//DTD SVG 1.1//EN" "http://www.w3.org/Graphics/SVG/1.1/DTD/svg11.dtd">
<svg version="1.1" id="Layer_1" xmlns="http://www.w3.org/2000/svg" xmlns:xlink="http://www.w3.org/1999/xlink" x="0px" y="0px"
	 width="31px" height="51px" viewBox="0 0 31 51" style="enable-background:new 0 0 31 51;" xml:space="preserve">
<style type="text/css">
<![CDATA[
	.st0{fill-rule:evenodd;clip-rule:evenodd;}
]]>
</style>
<g>
	<g>
		<path d="M26,0H5C2.2,0,0,2.2,0,5v41c0,2.8,2.2,5,5,5h21c2.8,0,5-2.2,5-5V5C31,2.2,28.8,0,26,0z M29,46c0,1.7-1.3,3-3,3H5
			c-1.7,0-3-1.3-3-3V5c0-1.7,1.3-3,3-3h21c1.7,0,3,1.3,3,3V46z M12.7,5c0-0.6-0.4-1-1-1c-0.6,0-1,0.4-1,1c0,0.6,0.4,1,1,1
			C12.2,6,12.7,5.6,12.7,5z M20,4h-5c-0.6,0-1,0.4-1,1c0,0.6,0.4,1,1,1h5c0.6,0,1-0.4,1-1C21,4.4,20.6,4,20,4z M15.6,41h-0.1
			c-1.9,0-3.4,1.5-3.4,3.4v0.1c0,1.9,1.5,3.4,3.4,3.4h0.1c1.9,0,3.4-1.5,3.4-3.4v-0.1C19,42.5,17.5,41,15.6,41z M17,44.6
			c0,0.8-0.6,1.4-1.4,1.4h-0.1c-0.8,0-1.4-0.6-1.4-1.4v-0.1c0-0.8,0.6-1.4,1.4-1.4h0.1c0.8,0,1.4,0.6,1.4,1.4V44.6z"/>
	</g>
</g>
</svg>
