<?xml version="1.0" encoding="utf-8"?>
<!-- Generator: Adobe Illustrator 16.0.0, SVG Export Plug-In . SVG Version: 6.00 Build 0)  -->
<!DOCTYPE svg PUBLIC "-//W3C//DTD SVG 1.1//EN" "http://www.w3.org/Graphics/SVG/1.1/DTD/svg11.dtd">
<svg version="1.1" id="Layer_1" xmlns="http://www.w3.org/2000/svg" xmlns:xlink="http://www.w3.org/1999/xlink" x="0px" y="0px"
	 width="48px" height="42.8px" viewBox="0 0 48 42.8" style="enable-background:new 0 0 48 42.8;" xml:space="preserve">
<style type="text/css">
<![CDATA[
	.st0{fill:#202020;}
]]>
</style>
<g>
	<g>
		<path class="st0" d="M48,21.4c0-3.3-4-5.7-9.5-7.1C41.5,8.5,42.9,3.4,41,1.1C40.6,0.6,39.8,0,38.4,0C35.1,0,29.7,3.6,24,9.3
			C18.3,3.6,12.9,0,9.6,0C8.2,0,7.4,0.6,7,1.1C5.1,3.4,6.5,8.5,9.5,14.3C4,15.7,0,18.1,0,21.4s4,5.7,9.5,7.1
			C6.5,34.3,5.1,39.4,7,41.7c0.4,0.5,1.2,1.1,2.6,1.1c3.3,0,8.7-3.6,14.4-9.3c5.7,5.7,11.1,9.3,14.4,9.3c1.4,0,2.2-0.6,2.6-1.1
			c1.9-2.3,0.5-7.4-2.6-13.1C44,27.1,48,24.7,48,21.4z M38.4,2c0.7,0,0.9,0.2,1.1,0.4c1.2,1.4,0,5.7-3,11.4c-2.9-0.6-6.1-1-9.3-1.2
			c-0.6-0.7-1.2-1.3-1.7-1.9C31.1,5,36,2,38.4,2z M27.8,26.3c-0.5,0.7-1.1,1.3-1.6,1.9c-0.7,0-1.5,0-2.2,0s-1.5,0-2.2,0
			c-0.5-0.6-1.1-1.2-1.6-1.9c-1.4-1.7-2.6-3.3-3.8-4.9c1.2-1.6,2.4-3.2,3.8-4.9c0.5-0.7,1.1-1.3,1.6-1.9c0.7,0,1.5,0,2.2,0
			c0.8,0,1.5,0,2.2,0c0.5,0.6,1.1,1.2,1.6,1.9c1.4,1.7,2.6,3.3,3.8,4.9C30.5,23,29.2,24.7,27.8,26.3z M32.8,23.1
			c1,1.4,1.8,2.8,2.6,4.1c-1.9,0.4-4.1,0.7-6.5,0.9c0.1-0.2,0.3-0.3,0.4-0.5C30.6,26.2,31.7,24.7,32.8,23.1z M24.4,30.2
			c-0.1,0.1-0.2,0.3-0.4,0.4c-0.1-0.1-0.2-0.3-0.4-0.4c0.1,0,0.2,0,0.4,0S24.2,30.2,24.4,30.2z M19,28.1c-2.3-0.2-4.5-0.5-6.5-0.9
			c0.8-1.3,1.6-2.7,2.6-4.1c1.1,1.5,2.3,3,3.5,4.5C18.8,27.8,18.9,27.9,19,28.1z M15.2,19.7c-1-1.4-1.8-2.8-2.6-4.1
			c1.9-0.4,4.1-0.7,6.5-0.9c-0.1,0.2-0.3,0.3-0.4,0.5C17.4,16.7,16.3,18.2,15.2,19.7z M23.6,12.6c0.1-0.1,0.2-0.3,0.4-0.4
			c0.1,0.1,0.2,0.3,0.4,0.4c-0.1,0-0.2,0-0.4,0C23.9,12.6,23.8,12.6,23.6,12.6z M29.4,15.2c-0.1-0.2-0.3-0.3-0.4-0.5
			c2.3,0.2,4.5,0.5,6.5,0.9c-0.8,1.3-1.6,2.7-2.6,4.1C31.7,18.2,30.6,16.7,29.4,15.2z M8.5,2.4C8.7,2.2,8.9,2,9.6,2
			c2.4,0,7.3,3,13,8.7c-0.6,0.6-1.2,1.2-1.7,1.9c-3.2,0.2-6.4,0.5-9.3,1.2C8.5,8.1,7.3,3.8,8.5,2.4z M2,21.4c0-1.9,3.2-4,8.6-5.3
			c1,1.8,2.2,3.5,3.4,5.3c-1.2,1.8-2.4,3.6-3.4,5.3C5.2,25.4,2,23.3,2,21.4z M9.6,40.8c-0.7,0-0.9-0.2-1.1-0.4
			c-1.2-1.4,0-5.7,3-11.4c2.9,0.6,6.1,1,9.3,1.2c0.6,0.7,1.2,1.3,1.7,1.9C16.9,37.8,12,40.8,9.6,40.8z M39.5,40.4
			c-0.1,0.1-0.3,0.4-1.1,0.4c-2.4,0-7.3-3-13-8.7c0.6-0.6,1.2-1.2,1.7-1.9c3.2-0.2,6.4-0.5,9.3-1.2C39.5,34.7,40.7,39,39.5,40.4z
			 M37.4,26.7c-1-1.8-2.2-3.6-3.4-5.3c1.2-1.8,2.4-3.6,3.4-5.3c5.3,1.4,8.6,3.4,8.6,5.3S42.8,25.4,37.4,26.7z"/>
	</g>
</g>
</svg>
