<?xml version="1.0" encoding="utf-8"?>
<!-- Generator: Adobe Illustrator 17.1.0, SVG Export Plug-In . SVG Version: 6.00 Build 0)  -->
<!DOCTYPE svg PUBLIC "-//W3C//DTD SVG 1.1//EN" "http://www.w3.org/Graphics/SVG/1.1/DTD/svg11.dtd">
<svg version="1.1" id="Layer_1" xmlns="http://www.w3.org/2000/svg" xmlns:xlink="http://www.w3.org/1999/xlink" x="0px" y="0px"
	 viewBox="0 0 96 96" enable-background="new 0 0 96 96" xml:space="preserve">
<path d="M94.3,95.9c-0.1,0-0.1,0-0.2,0H75.6c-0.4,0-0.8-0.2-1.1-0.4c-0.3-0.3-0.5-0.7-0.5-1.1V81.6H61.3c-0.4,0-0.8-0.2-1.1-0.4
	c-0.3-0.3-0.5-0.7-0.5-1.1V67.3H47c-0.4,0-0.8-0.2-1.1-0.5l-6.1-6.1C37,61.6,34,62.1,31,62.1c-17.1,0-31-13.9-31-31S13.9,0,31,0
	s31,13.9,31,31c0,3-0.4,6-1.3,8.9l34.6,34.6c0.3,0.3,0.5,0.7,0.5,1.1v18.7c0,0.2-0.1,0.5-0.2,0.7C95.4,95.6,94.9,95.9,94.3,95.9z
	 M77.1,92.8h15.6V76.3L57.9,41.4c-0.4-0.4-0.6-1-0.4-1.6C58.5,37,59,34,59,31C59,15.6,46.4,3.1,31,3.1C15.6,3.1,3.1,15.6,3.1,31
	S15.6,59,31,59c3,0,5.9-0.5,8.8-1.4c0.6-0.2,1.2,0,1.6,0.4l6.3,6.3h13.6c0.9,0,1.6,0.7,1.6,1.6v12.7h12.7c0.9,0,1.6,0.7,1.6,1.6
	V92.8z M24.9,36.2c-6.3,0-11.5-5.2-11.5-11.5c0-6.3,5.2-11.5,11.5-11.5c6.3,0,11.5,5.2,11.5,11.5C36.4,31,31.2,36.2,24.9,36.2z
	 M24.9,16.3c-4.6,0-8.4,3.8-8.4,8.4c0,4.6,3.8,8.4,8.4,8.4c4.6,0,8.4-3.8,8.4-8.4C33.3,20.1,29.5,16.3,24.9,16.3z"/>
</svg>
