<?xml version="1.0" encoding="utf-8"?>
<!-- Generator: Adobe Illustrator 17.1.0, SVG Export Plug-In . SVG Version: 6.00 Build 0)  -->
<!DOCTYPE svg PUBLIC "-//W3C//DTD SVG 1.1//EN" "http://www.w3.org/Graphics/SVG/1.1/DTD/svg11.dtd">
<svg version="1.1" id="Layer_1" xmlns="http://www.w3.org/2000/svg" xmlns:xlink="http://www.w3.org/1999/xlink" x="0px" y="0px"
	 viewBox="0 0 96 96" enable-background="new 0 0 96 96" xml:space="preserve">
<g>
	<path d="M28.4,17.1c-6,0-10.9,4.9-10.9,10.9s4.9,10.9,10.9,10.9S39.3,34,39.3,28S34.4,17.1,28.4,17.1z M28.4,34.2
		c-3.4,0-6.2-2.7-6.2-6.2s2.7-6.2,6.2-6.2s6.2,2.7,6.2,6.2S31.8,34.2,28.4,34.2z"/>
	<path d="M89.6,70.1L60.3,40.8c0.6-2.4,1-4.8,1-7.3c0-15.3-12.4-27.7-27.7-27.7S5.8,18.2,5.8,33.5s12.4,27.7,27.7,27.8
		c2.5,0,4.9-0.4,7.3-1l4.8,4.8l0.2,0.1c0.5,0.4,1.1,0.5,1.6,0.5h9.9v9.8c0,0.7,0.3,1.3,0.7,1.8c0.5,0.5,1.1,0.8,1.8,0.8h9.9v9.9
		c0,0.6,0.4,1.3,0.8,1.8c0.4,0.4,1.1,0.7,1.7,0.7h16.1c1.1,0,1.8-0.5,2-1.4c0.1-0.2,0.3-0.6,0.3-1V71.9
		C90.3,71.2,90.1,70.5,89.6,70.1z M72,73.3H62v-9.9c0-1.3-1.1-2.4-2.4-2.4H48.4l-5.1-5.1c-0.4-0.4-1.1-0.7-1.7-0.7
		c-0.3,0-0.5,0-0.7,0.1c-2.4,0.8-4.8,1.2-7.2,1.2c-12.7,0-23-10.3-23-23s10.3-22.9,23-22.9s23,10.3,23,23c0,2.4-0.4,4.8-1.2,7.2v0.1
		c-0.2,0.9,0.1,1.8,0.6,2.3l29.7,29.7v12.8H74.3v-9.9C74.3,74.3,73.3,73.3,72,73.3z"/>
</g>
</svg>
