<?xml version="1.0" encoding="utf-8"?>
<!-- Generator: Adobe Illustrator 16.0.0, SVG Export Plug-In . SVG Version: 6.00 Build 0)  -->
<!DOCTYPE svg PUBLIC "-//W3C//DTD SVG 1.1//EN" "http://www.w3.org/Graphics/SVG/1.1/DTD/svg11.dtd">
<svg version="1.1" id="Layer_1" xmlns="http://www.w3.org/2000/svg" xmlns:xlink="http://www.w3.org/1999/xlink" x="0px" y="0px"
	 width="57px" height="43px" viewBox="0 0 57 43" style="enable-background:new 0 0 57 43;" xml:space="preserve">
<style type="text/css">
<![CDATA[
	.st0{fill-rule:evenodd;clip-rule:evenodd;}
]]>
</style>
<g>
	<g>
		<path d="M53,10.1V4.7C53,2.1,50.9,0,48.2,0H4.8C2.1,0,0,2.1,0,4.7v25.5C0,32.9,2.1,35,4.8,35h16.9L21,41h-3c-0.6,0-1,0.4-1,1
			c0,0.6,0.4,1,1,1h17c0.6,0,1-0.4,1-1c0-0.6-0.4-1-1-1h-3l-0.6-6H39v3.2c0,2.6,2.1,4.8,4.8,4.8h8.5c2.6,0,4.8-2.1,4.8-4.8V14.8
			C57,12.4,55.3,10.4,53,10.1z M23,41l0.6-6h5.8l0.6,6H23z M39,33H4.8C3.2,33,2,31.8,2,30.2V30h37V33z M39,14.8V28H2V4.7
			C2,3.2,3.2,2,4.8,2h43.5C49.8,2,51,3.2,51,4.7V10h-7.2C41.1,10,39,12.1,39,14.8z M55,38.2c0,1.5-1.2,2.7-2.8,2.7h-8.5
			c-1.5,0-2.8-1.2-2.8-2.7V14.8c0-1.5,1.2-2.8,2.8-2.8h8.5c1.5,0,2.8,1.2,2.8,2.8V38.2z M49,14h-2c-0.6,0-1,0.4-1,1c0,0.6,0.4,1,1,1
			h2c0.6,0,1-0.4,1-1C50,14.4,49.6,14,49,14z M48.1,35h-0.2c-1,0-1.9,0.8-1.9,1.9v0.2c0,1,0.8,1.9,1.9,1.9h0.2c1,0,1.9-0.8,1.9-1.9
			v-0.2C50,35.8,49.2,35,48.1,35z"/>
	</g>
</g>
</svg>
