<?xml version="1.0" encoding="utf-8"?>
<!-- Generator: Adobe Illustrator 17.1.0, SVG Export Plug-In . SVG Version: 6.00 Build 0)  -->
<!DOCTYPE svg PUBLIC "-//W3C//DTD SVG 1.1//EN" "http://www.w3.org/Graphics/SVG/1.1/DTD/svg11.dtd">
<svg version="1.1" id="Layer_1" xmlns="http://www.w3.org/2000/svg" xmlns:xlink="http://www.w3.org/1999/xlink" x="0px" y="0px"
	 viewBox="0 0 96 96" enable-background="new 0 0 96 96" xml:space="preserve">
<path d="M70.7,52.5l3.6,4.5c0.7-0.1,1.5-0.2,2.2-0.2c0.9,0,1.7,0.1,2.6,0.3l3.7-4.4l2.2,1l-0.6,5.8c1.3,1,2.5,2.1,3.4,3.5l5.7-0.5
	l0.9,2.3L90,68.1c0.3,1.6,0.3,3.3,0,5l4.3,3.7l-1,2.2l-5.5-0.6c-1,1.4-2.2,2.7-3.6,3.6l0.5,5.5l-2.2,0.9L79,84.2
	c-0.8,0.2-1.7,0.2-2.5,0.2c-0.9,0-1.8-0.1-2.7-0.3l-3.5,4.2l-2.2-1l0.6-5.4c-1.5-1-2.7-2.3-3.6-3.8l-5.4,0.5l-0.9-2.3l4.3-3.5
	c-0.3-1.7-0.3-3.4,0.1-5.1L59,64.1l0.9-2.2l5.6,0.6c1-1.4,2.2-2.5,3.6-3.5l-0.5-5.7L70.7,52.5 M76.8,77.2c3.6,0,6.5-2.9,6.5-6.5
	s-2.9-6.5-6.5-6.5s-6.5,2.9-6.5,6.5C70.3,74.2,73.2,77.2,76.8,77.2 M70.7,50.9c-0.2,0-0.4,0-0.6,0.1l-2.2,0.9c-0.6,0.3-1,0.9-1,1.6
	l0.4,4.8c-1,0.7-1.9,1.6-2.6,2.6L60,60.4c-0.1,0-0.1,0-0.2,0c-0.6,0-1.2,0.4-1.4,1l-0.9,2.2c-0.3,0.6-0.1,1.4,0.4,1.8l3.6,3
	c-0.2,1.3-0.2,2.6-0.1,3.9l-3.6,2.9c-0.5,0.4-0.7,1.2-0.5,1.8l0.9,2.2c0.2,0.6,0.8,1,1.5,1h0.1l4.5-0.4c0.8,1.1,1.7,2,2.7,2.9
	l-0.5,4.5c-0.1,0.7,0.3,1.3,0.9,1.6l2.2,1c0.2,0.1,0.4,0.1,0.6,0.1c0.5,0,0.9-0.2,1.2-0.6l2.9-3.5c0.7,0.1,1.4,0.1,2.1,0.1
	c0.6,0,1.2,0,1.9-0.1l2.9,3.6c0.3,0.4,0.8,0.6,1.2,0.6c0.2,0,0.4,0,0.6-0.1l2.2-0.9c0.6-0.3,1-0.9,1-1.6l-0.4-4.7
	c1-0.8,1.9-1.7,2.7-2.7l4.6,0.5c0.1,0,0.1,0,0.2,0c0.6,0,1.2-0.4,1.4-1l0.9-2.2c0.3-0.6,0.1-1.4-0.4-1.8l-3.6-3.1
	c0.2-1.2,0.2-2.5,0-3.7l3.7-3c0.5-0.4,0.7-1.2,0.5-1.8L95,61.7c-0.2-0.6-0.8-1-1.5-1h-0.1l-4.8,0.4c-0.7-0.9-1.6-1.8-2.5-2.5
	l0.5-4.9c0.1-0.7-0.3-1.3-0.9-1.6l-2.2-1c-0.2,0-0.5-0.1-0.7-0.1c-0.5,0-0.9,0.2-1.2,0.6l-3.1,3.7c-0.7-0.1-1.3-0.1-2-0.1
	c-0.5,0-1.1,0-1.6,0.1l-3-3.8C71.6,51.1,71.2,50.9,70.7,50.9L70.7,50.9z M76.8,75.6c-2.7,0-4.9-2.2-4.9-4.9c0-2.7,2.2-4.9,4.9-4.9
	c2.7,0,4.9,2.2,4.9,4.9C81.6,73.4,79.5,75.6,76.8,75.6L76.8,75.6z"/>
<path d="M13.7,52.5l3.6,4.5c0.7-0.1,1.5-0.2,2.2-0.2c0.9,0,1.7,0.1,2.6,0.3l3.7-4.4l2.2,1l-0.6,5.8c1.3,1,2.5,2.1,3.4,3.5l5.7-0.5
	l0.9,2.3L33,68.1c0.3,1.6,0.3,3.3,0,5l4.3,3.7L36.4,79l-5.5-0.6c-1,1.4-2.2,2.7-3.6,3.6l0.5,5.5l-2.2,0.9L22,84.2
	c-0.8,0.2-1.7,0.2-2.5,0.2c-0.9,0-1.8-0.1-2.7-0.3l-3.5,4.2l-2.2-1l0.6-5.4c-1.5-1-2.7-2.3-3.6-3.8l-5.4,0.5l-0.9-2.3L6,72.9
	c-0.3-1.7-0.3-3.4,0.1-5.1l-4.2-3.6L2.8,62l5.6,0.6c1-1.4,2.2-2.5,3.6-3.5l-0.5-5.7L13.7,52.5 M19.8,77.2c3.6,0,6.5-2.9,6.5-6.5
	s-2.9-6.5-6.5-6.5s-6.5,2.9-6.5,6.5C13.3,74.2,16.2,77.2,19.8,77.2 M13.7,50.9c-0.2,0-0.4,0-0.6,0.1l-2.2,0.9c-0.6,0.3-1,0.9-1,1.6
	l0.4,4.8c-1,0.7-1.9,1.6-2.6,2.6L3,60.4c-0.1,0-0.1,0-0.2,0c-0.6,0-1.2,0.4-1.4,1l-0.9,2.2c-0.3,0.6-0.1,1.4,0.4,1.8l3.6,3
	c-0.2,1.3-0.2,2.6-0.1,3.9l-3.6,2.9C0.2,75.6,0,76.3,0.2,77l0.9,2.2c0.2,0.6,0.8,1,1.5,1h0.1l4.5-0.4c0.8,1.1,1.7,2,2.7,2.9
	l-0.5,4.5c-0.1,0.7,0.3,1.3,0.9,1.6l2.2,1c0.2,0.1,0.4,0.1,0.6,0.1c0.5,0,0.9-0.2,1.2-0.6l2.9-3.5c0.7,0.1,1.4,0.1,2.1,0.1
	c0.6,0,1.2,0,1.9-0.1l2.9,3.6c0.3,0.4,0.8,0.6,1.2,0.6c0.2,0,0.4,0,0.6-0.1l2.2-0.9c0.6-0.3,1-0.9,1-1.6l-0.4-4.7
	c1-0.8,1.9-1.7,2.7-2.7l4.6,0.5c0.1,0,0.1,0,0.2,0c0.6,0,1.2-0.4,1.4-1l0.9-2.2c0.3-0.6,0.1-1.4-0.4-1.8l-3.6-3.1
	c0.2-1.2,0.2-2.5,0-3.7l3.7-3c0.5-0.4,0.7-1.2,0.5-1.8L38,61.7c-0.2-0.6-0.8-1-1.5-1h-0.1l-4.8,0.4c-0.7-0.9-1.6-1.8-2.5-2.5
	l0.5-4.9c0.1-0.7-0.3-1.3-0.9-1.6l-2.2-1C26.3,51,26.1,51,25.9,51c-0.5,0-0.9,0.2-1.2,0.6l-3.1,3.7c-0.7-0.1-1.3-0.1-2-0.1
	c-0.5,0-1.1,0-1.6,0.1l-3-3.8C14.6,51.1,14.2,50.9,13.7,50.9L13.7,50.9z M19.8,75.6c-2.7,0-4.9-2.2-4.9-4.9c0-2.7,2.2-4.9,4.9-4.9
	s4.9,2.2,4.9,4.9C24.7,73.4,22.5,75.6,19.8,75.6L19.8,75.6z"/>
<rect x="18.6" y="26.9" fill="#231F20" width="2" height="25.4"/>
<rect x="19.6" y="26.7" fill="#231F20" width="57" height="2"/>
<rect x="75.6" y="26.9" fill="#231F20" width="2" height="25.4"/>
<rect x="47.1" y="6.5" fill="#231F20" width="2" height="21"/>
</svg>
