<?xml version="1.0" encoding="utf-8"?>
<!-- Generator: Adobe Illustrator 17.1.0, SVG Export Plug-In . SVG Version: 6.00 Build 0)  -->
<!DOCTYPE svg PUBLIC "-//W3C//DTD SVG 1.1//EN" "http://www.w3.org/Graphics/SVG/1.1/DTD/svg11.dtd">
<svg version="1.1" id="Layer_1" xmlns="http://www.w3.org/2000/svg" xmlns:xlink="http://www.w3.org/1999/xlink" x="0px" y="0px"
	 viewBox="0 0 96 96" enable-background="new 0 0 96 96" xml:space="preserve">
<path d="M74.7,62.7c-4.1,0-7.5,3.4-7.5,7.5s3.4,7.5,7.5,7.5s7.5-3.4,7.5-7.5S78.8,62.7,74.7,62.7z M74.7,74.1
	c-2.2,0-3.9-1.8-3.9-3.9s1.7-3.9,3.9-3.9c2.1,0,3.9,1.7,3.9,3.9C78.5,72.4,76.8,74.1,74.7,74.1z"/>
<path d="M90.5,71.5c0.1-1,0.1-1.9,0-2.9l3.3-2.6c0.8-0.6,1.2-1.9,0.8-2.9l-0.8-2.2c-0.3-1-1.3-1.7-2.4-1.7l-4.5,0.4
	c-0.6-0.7-1.2-1.3-1.9-1.9l0.3-4.4c0.1-1.1-0.4-2.2-1.5-2.7l-2.2-1l-0.2-0.1h-0.2c-0.1,0-0.1,0-0.2,0c-0.1-0.1-0.3-0.1-0.5-0.1
	c-0.8,0-1.5,0.4-2,1l-2.8,3.3c-0.9-0.1-1.7-0.1-2.7,0l-2.6-3.3c-0.5-0.7-1.2-1-2-1c-0.3,0-0.7,0-1,0.2l-2.3,0.9
	c-0.9,0.5-1.5,1.5-1.5,2.6l0.4,4.2c-0.7,0.6-1.4,1.3-2,2l-4.1-0.4h-0.3c-1,0-2,0.7-2.3,1.6l-0.9,2.1c-0.5,1-0.2,2.3,0.7,3l3.2,2.6
	c-0.1,0.9-0.2,1.9-0.1,3L55,73.8c-0.8,0.7-1.2,1.9-0.8,3l0.9,2.1c0.3,1,1.3,1.7,2.4,1.7l4.1-0.4c0.7,0.9,1.4,1.7,2.1,2.3l-0.4,4
	c-0.1,1.1,0.4,2.2,1.5,2.7l2.2,1c0.4,0.2,0.7,0.2,1,0.2c0.8,0,1.5-0.4,2-1l2.7-3c1,0.1,1.9,0.1,3.1,0l2.5,3.1c0.5,0.6,1.2,1,2,1
	c0.2,0,0.6,0,0.9-0.2l2.3-0.9c0.9-0.5,1.5-1.5,1.5-2.6l-0.4-4.2c0.8-0.7,1.5-1.4,2.1-2.1l4.1,0.4h0.3c1,0,2-0.7,2.3-1.6l0.9-2.1
	c0.5-1,0.2-2.3-0.6-3L90.5,71.5z M81.4,86.4l-0.8,0.3l-3.4-4.1l-0.6,0.1c-0.7,0.2-1.6,0.2-2.3,0.2c-0.8,0-1.7-0.1-2.5-0.3l-0.6-0.1
	l-3.4,4.1L67,86.2l0.6-5.4l-0.5-0.3c-1.3-0.9-2.4-2.1-3.3-3.5l-0.3-0.5L58.2,77l-0.4-0.9l4.2-3.4l-0.1-0.6c-0.3-1.7-0.3-3.2,0.1-4.7
	l0.2-0.6l-4.1-3.5l0.3-0.8l5.4,0.6l0.3-0.5c0.9-1.2,2-2.3,3.4-3.3L68,59l-0.5-5.5l0.7-0.3l3.5,4.4l0.6-0.1c0.7-0.1,1.5-0.2,2.1-0.2
	c0.8,0,1.5,0.1,2.4,0.3l0.6,0.1l3.6-4.3l0.8,0.5l-0.6,5.6l0.4,0.3c1.5,1.1,2.5,2.1,3.2,3.2l0.3,0.6l5.6-0.5l0.4,0.9l-4.3,3.2
	l0.1,0.6c0.3,1.4,0.3,3,0,4.6L86.8,73l4.1,3.6l-0.4,0.9l-5.4-0.6l-0.3,0.5c-1,1.4-2.1,2.6-3.3,3.3L81,81L81.4,86.4z"/>
<path d="M21.7,62.7c-4.1,0-7.5,3.4-7.5,7.5s3.4,7.5,7.5,7.5s7.5-3.4,7.5-7.5S25.8,62.7,21.7,62.7z M21.7,74.1
	c-2.2,0-3.9-1.8-3.9-3.9s1.7-3.9,3.9-3.9c2.1,0,3.9,1.7,3.9,3.9S23.9,74.1,21.7,74.1z"/>
<path d="M41.5,63.1l-0.7-2.2c-0.3-1-1.3-1.7-2.4-1.7l-4.5,0.4c-0.6-0.7-1.2-1.3-1.9-1.9l0.3-4.1c0.1-1.1-0.4-2.2-1.5-2.7l-2.2-1
	c-0.4-0.2-0.7-0.2-1-0.2c-0.9,0-1.5,0.4-2,1L22.8,54c-0.9-0.1-1.7-0.1-2.7,0l-2.6-3.4l-0.1-0.1c-0.6-0.6-1.2-0.9-2-0.9
	c-0.3,0-0.7,0-1,0.2l-2.3,0.9c-0.9,0.5-1.5,1.5-1.5,2.6l0.4,4.2c-0.7,0.6-1.4,1.3-2,2l-4.1-0.4H4.6c-1,0-2,0.7-2.3,1.6l-0.9,2.1
	c-0.5,1-0.2,2.3,0.7,3l3.2,2.6c-0.1,0.9-0.2,1.9-0.1,3l-3.1,2.5c-0.9,0.6-1.3,1.8-1,2.9L2,79c0.4,1,1.3,1.7,2.5,1.7l4.1-0.4
	c0.7,0.9,1.4,1.7,2.1,2.3l-0.4,4c-0.1,1.1,0.4,2.2,1.5,2.7l2.2,1c0.4,0.2,0.7,0.2,1,0.2c0.8,0,1.5-0.4,2-1l2.6-3.1
	c1,0.1,1.9,0.1,3.1,0l2.5,3.1c0.5,0.6,1.2,1,2,1c0.2,0,0.6,0,0.9-0.2l2.3-0.9c0.9-0.5,1.5-1.5,1.5-2.6l-0.4-4.2
	c0.8-0.7,1.5-1.3,2.1-2.1l4.1,0.4H38c1,0,2-0.7,2.3-1.6l0.9-2.1c0.5-1,0.3-2.3-0.6-3l-3.2-2.7c0.1-1,0.1-1.9,0-2.9l3.3-2.6
	C41.5,65.3,41.8,64.1,41.5,63.1z M28.5,86.4l-0.8,0.3l-3.5-4.1l-0.6,0.1c-0.7,0.2-1.6,0.2-2.3,0.2c-0.8,0-1.7-0.1-2.5-0.3l-0.6-0.1
	l-3.4,4.1L14,86.2l0.6-5.4l-0.5-0.3c-1.3-0.9-2.4-2.1-3.3-3.5l-0.3-0.5L5.2,77l-0.3-0.9L9,72.8l-0.1-0.6C8.6,70.5,8.6,69,9,67.5
	l0.1-0.6L5,63.4l0.3-0.9l5.4,0.6l0.3-0.5c0.9-1.2,2-2.3,3.4-3.3l0.5-0.3l-0.5-5.5l0.8-0.3l3.5,4.4l0.6-0.1c0.7-0.1,1.5-0.2,2.1-0.2
	c0.8,0,1.5,0.1,2.4,0.3l0.6,0.1l3.6-4.3l0.8,0.5l-0.6,5.6l0.4,0.3c1.5,1.1,2.5,2.1,3.2,3.2l0.4,0.6l5.6-0.5l0.3,0.9l-4.3,3.2
	l0.1,0.6c0.3,1.4,0.3,3,0,4.6L33.8,73l4,3.7l-0.3,0.8l-5.3-0.6l-0.3,0.5c-1,1.4-2.1,2.6-3.3,3.3L28.1,81L28.5,86.4z"/>
<polygon points="21.5,19.1 74.5,19.1 74.5,42.3 78.5,42.3 78.5,15.3 77.5,15.3 77.5,15.1 50,15.1 50,0 46,0 46,15.1 18.5,15.1 
	18.5,15.3 17.5,15.3 17.5,42.3 21.5,42.3 "/>
</svg>
