<?xml version="1.0" encoding="utf-8"?>
<!-- Generator: Adobe Illustrator 19.2.1, SVG Export Plug-In . SVG Version: 6.00 Build 0)  -->
<svg version="1.1" id="Layer_1" xmlns:sketch="http://www.bohemiancoding.com/sketch/ns"
	 xmlns="http://www.w3.org/2000/svg" xmlns:xlink="http://www.w3.org/1999/xlink" x="0px" y="0px" width="750px" height="471px"
	 viewBox="0 0 750 471" style="enable-background:new 0 0 750 471;" xml:space="preserve">
<style type="text/css">
	.st0{fill:#231F20;}
</style>
<path id="path3496" sketch:type="MSShapeGroup" class="st0" d="M528.4,244.6c16.5,0.4,32.9-0.7,49.4,0.6
	c16.6,3.1,20.6,28.2,5.9,36.5c-10,5.5-22,2-32.9,3h-22.4L528.4,244.6L528.4,244.6z M587.2,199.5c3.7,12.9-8.7,24.5-21.3,22.7h-37.7
	c0.3-12.1-0.6-25.3,0.4-36.9c15.1,0.4,30.3-0.8,45.3,0.7C580.5,187.6,586,192.9,587.2,199.5L587.2,199.5z M677.9,8.2
	c0.7,24.6,0.1,50.5,0.3,75.7c0,102.2,0.1,204.4-0.1,306.6c-0.7,38.3-34.6,71.5-72.6,72.3c-38,0.1-76.1,0-114.2,0V308.4
	c41.5-0.3,83,0.4,124.4-0.3c19.3-1.3,40.3-13.9,41.2-35c2.3-21.3-17.7-36-36.9-38.3c-7.3-0.1-7-2.1,0-3c18.2-3.9,32.4-22.7,27-41.5
	c-4.5-19.8-26.5-27.4-44.6-27.4c-37.2-0.3-74.2,0-111.3-0.1c0.3-28.9-0.6-57.7,0.4-86.6c3-37.6,37.7-68.5,75.2-68
	C604,8.2,640.9,8.2,677.9,8.2L677.9,8.2z"/>
<path id="path3498" sketch:type="MSShapeGroup" class="st0" d="M72.1,80c1-38.3,35-71.2,73.1-71.8c37.9-0.1,75.9,0,113.7,0
	c-0.1,127.9,0.1,255.9-0.1,383.8c-1.4,37.7-35.2,70.1-72.8,70.8c-38,0.1-76,0-114,0V303.2c36.9,8.7,75.6,12.4,113.3,6.6
	c22.5-3.7,47.2-14.6,54.8-38c5.6-20,2.4-41,3.2-61.5v-47.6h-65.2c-0.3,31.5,0.6,63.1-0.4,94.4c-1.7,19.3-20.8,31.7-39.1,31
	c-22.7,0.3-67.4-16.3-67.4-16.3C71.1,212.7,71.8,138.8,72.1,80L72.1,80z"/>
<path id="path3500" sketch:type="MSShapeGroup" class="st0" d="M283.2,181.9c-3.4,0.7-0.7-11.7-1.5-16.3c0.3-29.7-0.4-59.5,0.4-89.4
	c3-37.7,38-68.8,75.6-68h110.9c-0.1,127.9,0.1,255.9-0.1,383.8c-1.4,37.7-35.2,70.1-72.8,70.8c-38,0.1-76,0-114,0v-175
	c25.9,21.3,61.2,24.6,93.6,24.6c24.4,0,48.6-3.8,72.3-9.4V271c-26.7,13.2-58,21.7-87.5,14.1c-20.7-5.1-35.6-25.1-35.3-46.3
	c-2.4-22.1,10.6-45.5,32.4-52.1c27-8.4,56.4-2,81.8,9c5.5,2.8,11,6.3,8.7-2.7v-25.2c-42.4-10.1-87.4-13.8-129.9-2.8
	C305.3,168.5,293.2,173.7,283.2,181.9L283.2,181.9z"/>
</svg>
