<?xml version="1.0" encoding="utf-8"?>
<!-- Generator: Adobe Illustrator 19.2.1, SVG Export Plug-In . SVG Version: 6.00 Build 0)  -->
<svg version="1.1" id="Layer_1" xmlns:sketch="http://www.bohemiancoding.com/sketch/ns"
	 xmlns="http://www.w3.org/2000/svg" xmlns:xlink="http://www.w3.org/1999/xlink" x="0px" y="0px" width="750px" height="471px"
	 viewBox="0 0 750 471" style="enable-background:new 0 0 750 471;" xml:space="preserve">
<style type="text/css">
	.st0{fill:#393939;}
</style>
<path class="st0" d="M710,0H40C17.9,0,0,17.9,0,40v391c0,22.1,17.9,40,40,40h670c22.1,0,40-17.9,40-40V40C750,17.9,732.1,0,710,0z
	 M411,402.2h-78.2c-92,0.4-167.7-74.3-167.7-165.2c0-99.4,75.7-168.1,167.7-168.1H411c90.9,0,173.9,68.7,173.9,168.1
	C584.9,327.9,502,402.6,411,402.2z"/>
<path class="st0" d="M333.2,82.6c-84.1,0-152.2,68.3-152.2,152.6c0,84.3,68.1,152.5,152.2,152.6c84.1,0,152.2-68.3,152.2-152.6
	C485.4,150.9,417.3,82.6,333.2,82.6z M298.6,325.4c-36.2-13.9-61.9-49-61.9-90.2c0.1-41.2,25.7-76.3,61.9-90.3V325.4z M367.7,325.5
	V144.9c36.2,13.9,61.9,49.1,62,90.3C429.6,276.4,403.9,311.5,367.7,325.5z"/>
</svg>
