<?xml version="1.0" encoding="utf-8"?>
<!-- Generator: Adobe Illustrator 19.2.1, SVG Export Plug-In . SVG Version: 6.00 Build 0)  -->
<svg version="1.1" id="Layer_1" xmlns:sketch="http://www.bohemiancoding.com/sketch/ns"
	 xmlns="http://www.w3.org/2000/svg" xmlns:xlink="http://www.w3.org/1999/xlink" x="0px" y="0px" width="780px" height="501px"
	 viewBox="0 0 780 501" style="enable-background:new 0 0 780 501;" xml:space="preserve">
<style type="text/css">
	.st0{fill:#231F20;}
</style>
<path class="st0" d="M412.5,189.3c35.9,0,65,27.4,65,61.2l0,0c0,33.8-29.1,61.2-65,61.2s-65-27.4-65-61.2l0,0
	C347.5,216.6,376.7,189.3,412.5,189.3L412.5,189.3z"/>
<path class="st0" d="M310.4,190c10.2,0,18.8,2.1,29.4,7.1v26.5c-9.9-9.2-18.6-13-29.9-13c-22.4,0-39.9,17.4-39.9,39.6
	c0,23.3,17.1,39.7,41.1,39.7c10.8,0,19.3-3.6,28.8-12.6v26.5c-10.8,4.8-19.6,6.7-29.9,6.7c-36.3,0-64.5-26.2-64.5-60
	C245.4,216.8,274.3,190,310.4,190L310.4,190z"/>
<path class="st0" d="M197.7,190.8c13.3,0,25.6,4.3,35.9,12.8l-12.4,15.3c-6.3-6.5-12.1-9.3-19.3-9.3c-10.3,0-17.8,5.5-17.8,12.8
	c0,6.3,4.2,9.5,18.5,14.5c27.2,9.3,35.2,17.6,35.2,35.9c0,22.3-17.4,37.8-42.1,37.8c-18.1,0-31.3-6.7-42.4-21.9l15.4-13.9
	c5.5,10,14.6,15.3,26,15.3c10.7,0,18.5-7,18.5-16.2c0-4.9-2.4-8.9-7.2-12c-2.4-1.4-7.2-3.5-16.5-6.5c-22.4-7.5-30.1-15.7-30.1-31.6
	C159.6,204.9,176.1,190.8,197.7,190.8L197.7,190.8z"/>
<polygon class="st0" points="470.1,192.8 496.2,192.8 528.8,270.1 561.8,192.8 587.6,192.8 534.8,310.8 522,310.8 "/>
<polygon class="st0" points="120.5,192.9 144.4,192.9 144.4,308.1 120.5,308.1 "/>
<polygon class="st0" points="598.4,192.9 666,192.9 666,212.4 622.2,212.4 622.2,238.1 664.3,238.1 664.3,257.5 622.2,257.5 
	622.2,288.6 666,288.6 666,308.1 598.4,308.1 "/>
<path class="st0" d="M732.6,259.6c18-3.5,27.9-15,27.9-32.6c0-21.6-15.8-34-43.3-34h-35.4v115h23.8v-46.2h3.1l33,46.2H771
	L732.6,259.6z M712.5,246h-7v-34.8h7.3c14.9,0,22.9,5.8,22.9,17.1C735.8,239.7,727.8,246,712.5,246z"/>
<path class="st0" d="M43.9,192.9H9v115h34.8c18.5,0,31.9-4.1,43.6-13.2c13.9-10.9,22.2-27.3,22.2-44.2
	C109.6,216.6,82.7,192.9,43.9,192.9z M71.8,279.4c-7.5,6.4-17.2,9.2-32.6,9.2h-6.4v-76.1h6.4c15.4,0,24.7,2.6,32.6,9.3
	c8.2,7,13.2,17.6,13.2,28.7C85,261.5,80,272.5,71.8,279.4z"/>
</svg>
