<?xml version="1.0" encoding="utf-8"?>
<!-- Generator: Adobe Illustrator 19.2.1, SVG Export Plug-In . SVG Version: 6.00 Build 0)  -->
<svg version="1.1" id="Layer_1" xmlns:sketch="http://www.bohemiancoding.com/sketch/ns"
	 xmlns="http://www.w3.org/2000/svg" xmlns:xlink="http://www.w3.org/1999/xlink" x="0px" y="0px" width="750px" height="471px"
	 viewBox="0 0 750 471" style="enable-background:new 0 0 750 471;" xml:space="preserve">
<style type="text/css">
	.st0{fill:#231F20;stroke:#FFFFFF;}
	.st1{fill:#231F20;}
</style>
<path id="path14-path" sketch:type="MSShapeGroup" class="st0" d="M743,235.5c0,126.1-102.7,228.6-229,228.6
	c-52.7,0-101.3-17.8-140-47.8c-38.7,29.9-87.3,47.8-140,47.8C107.7,464.1,5,361.5,5,235.5C5,109.4,107.7,6.9,234,6.9
	c52.7,0,101.3,17.8,140,47.8c38.7-29.9,87.3-47.8,140-47.8C640.3,6.9,743,109.4,743,235.5L743,235.5z M513.6,27.1
	c-46.4,0-89.4,15.1-123.9,40.8c31.4,29.2,54.6,67.1,65.7,109.8h-21.2c-10.9-37.8-32.1-71.1-60.6-96.8c-28.4,25.7-49.6,59-60.5,96.8
	h-21.3C303,135,326.2,97.1,357.7,67.9c-34.7-25.7-77.5-40.8-124-40.8c-115.1,0-208.5,93.2-208.5,208.2s93.3,208.1,208.5,208.1
	c46.4,0,89.4-15.1,124-40.8c-29.6-27.5-51.9-62.7-63.7-102.3h21.4c11.4,34.7,31.6,65.4,58.1,89.3c26.5-24,46.8-54.6,58.2-89.3h21.4
	c-11.8,39.6-34.1,74.8-63.7,102.3c34.7,25.7,77.5,40.8,123.9,40.8c115.2,0,208.5-93.2,208.5-208.1
	C722.1,120.3,628.8,27.1,513.6,27.1L513.6,27.1z"/>
<path id="path13" sketch:type="MSShapeGroup" class="st1" d="M149.3,185.3H116l-20.9,62l-0.9-62h-31L46.5,285.5h20.2l12.9-76.6
	l1.8,76.6h14.7l27.5-77.1l-12.3,77.1h21.5L149.3,185.3L149.3,185.3z"/>
<path id="path15" sketch:type="MSShapeGroup" class="st1" d="M204.8,285.5h-17.8l0.4-8.4c-5.5,6.7-12.7,9.9-22.5,9.9
	c-11.7,0-19.6-9.1-19.6-22.2c0-19.9,13.9-31.4,37.7-31.4c2.5,0,5.6,0.2,8.7,0.7c0.7-2.7,0.8-3.8,0.8-5.3c0-5.4-3.7-7.4-13.8-7.4
	c-10.5-0.1-19.2,2.5-22.8,3.7c0.2-1.3,3-18.3,3-18.3c10.7-3.1,17.7-4.4,25.7-4.4c18.5,0,28.3,8.3,28.3,23.9c0,4.1-0.7,9.4-1.7,16.2
	C209.4,254,205.3,279.2,204.8,285.5L204.8,285.5z M189.7,249.5c-2.2-0.2-3.3-0.3-4.8-0.3c-12.2,0-18.4,4.1-18.4,12.3
	c0,5,3,8.3,7.6,8.3C183,269.9,189.3,261.6,189.7,249.5L189.7,249.5z"/>
<path id="path17" sketch:type="MSShapeGroup" class="st1" d="M486.4,183c-28.5,0-48.5,25-48.5,60.9c0,26.6,14.5,43.3,37.6,43.3
	c5.9,0,11.1-0.8,19-2.9l3.8-22.9c-7.1,3.5-13,5.2-18.3,5.2c-12.4,0-20.1-9.2-20.1-24.5c0-22.1,11.2-37.6,27.3-37.6
	c5.9,0,11.6,1.6,19.2,5.4l3.5-21.8C506.9,187,495.8,183,486.4,183L486.4,183z"/>
<path id="path19" sketch:type="MSShapeGroup" class="st1" d="M563.8,285.5h-17.8l0.4-8.4c-5.5,6.7-12.7,9.9-22.5,9.9
	c-11.7,0-19.6-9.1-19.6-22.2c0-19.9,13.9-31.4,37.8-31.4c2.5,0,5.6,0.2,8.7,0.7c0.7-2.7,0.8-3.8,0.8-5.3c0-5.4-3.7-7.4-13.8-7.4
	c-10.5-0.1-19.2,2.5-22.8,3.7c0.2-1.3,3-18.3,3-18.3c10.8-3.1,17.8-4.4,25.7-4.4c18.5,0,28.3,8.3,28.3,23.9c0,4.1-0.7,9.4-1.7,16.2
	C568.3,254,564.3,279.2,563.8,285.5L563.8,285.5z M548.6,249.5c-2.2-0.2-3.3-0.3-4.8-0.3c-12.2,0-18.4,4.1-18.4,12.3
	c0,5,3,8.3,7.7,8.3C541.9,269.9,548.3,261.6,548.6,249.5L548.6,249.5z"/>
<path id="path21" sketch:type="MSShapeGroup" class="st1" d="M310.6,266.6c-1.5,0.6-3.4,0.8-5.8,0.8c-5.2,0-7.4-1.8-7.4-6.1
	c0-2.6,3.6-21.9,6.1-37.3h11l2.9-19.6h-11l2.5-12.3h-21.2c0,0-8.1,48-9.3,55.6c-1.3,8.6-3.1,18.2-3,21.8c0,11.7,5.9,17.9,16.9,17.9
	c4.9,0,9.5-0.8,15.5-2.7L310.6,266.6L310.6,266.6z"/>
<path id="path23" sketch:type="MSShapeGroup" class="st1" d="M376.4,283.6c-7.4,2.2-14.5,3.3-22,3.3c-24,0-36.5-12.6-36.5-36.5
	c0-27.9,15.9-48.5,37.5-48.5c17.6,0,28.9,11.4,28.9,29.5c0,5.9-0.8,11.8-2.7,20.1h-42.5c-1.5,11.8,6.2,16.7,18.6,16.7
	c7.6,0,14.6-1.6,22.2-5.2L376.4,283.6L376.4,283.6z M365.1,235.7c0.1-1.7,2.2-14.6-10-14.6c-6.8,0-11.7,5.3-13.7,14.6H365.1
	L365.1,235.7z"/>
<path id="path25" sketch:type="MSShapeGroup" class="st1" d="M221.8,229.7c0,10.3,4.9,17.4,16.4,22.8c8.7,4.1,10.1,5.3,10.1,9
	c0,5-3.8,7.3-12.3,7.3c-6.4,0-12.3-1-19.3-3.1c0,0-2.8,17.9-2.9,18.8c4.9,1,9.3,2,22.4,2.5c22.7,0,33.2-8.6,33.2-27.3
	c0-11.2-4.4-17.7-15.1-22.8c-9-4.1-10.1-5-10.1-8.9c0-4.4,3.6-6.6,10.5-6.6c4.1,0,10,0.4,15.5,1.2l3-19c-5.6-0.9-14-1.6-19-1.6
	C230.1,202.1,221.7,214.6,221.8,229.7L221.8,229.7z"/>
<path id="path27" sketch:type="MSShapeGroup" class="st1" d="M684.8,285.5h-20.3l1-7.6c-5.9,6.3-12,9-19.9,9
	c-15.6,0-25.9-13.5-25.9-33.9c0-27.1,16-50,35-50c8.3,0,14.7,3.4,20.5,11.1l4.7-28.9h21.2L684.8,285.5L684.8,285.5z M653,266.9
	c10,0,17-11.3,17-27.5c0-10.4-4-16-11.4-16c-9.8,0-16.7,11.3-16.7,27.4C642.1,261.5,645.8,266.9,653,266.9z"/>
<path id="path29" sketch:type="MSShapeGroup" class="st1" d="M587,204.1c-2.7,25.2-7.5,50.8-11.2,76l-1,5.5h21.5
	c7.7-49.9,9.5-59.7,21.6-58.4c1.9-10.2,5.5-19.2,8.2-23.7c-9-1.9-14,3.3-20.6,12.9c0.6-4.1,1.5-8.2,1.2-12.3L587,204.1L587,204.1z"
	/>
<path id="path31" sketch:type="MSShapeGroup" class="st1" d="M398.6,204.1c-2.7,25.2-7.5,50.8-11.2,76l-1,5.5h21.5
	c7.7-49.9,9.5-59.7,21.6-58.4c1.9-10.2,5.5-19.2,8.2-23.7c-9-1.9-14,3.3-20.6,12.9c0.6-4.1,1.5-8.2,1.2-12.3L398.6,204.1
	L398.6,204.1z"/>
</svg>
