<?xml version="1.0" encoding="utf-8"?>
<!-- Generator: Adobe Illustrator 19.2.1, SVG Export Plug-In . SVG Version: 6.00 Build 0)  -->
<svg version="1.1" id="Layer_1" xmlns:sketch="http://www.bohemiancoding.com/sketch/ns"
	 xmlns="http://www.w3.org/2000/svg" xmlns:xlink="http://www.w3.org/1999/xlink" x="0px" y="0px" width="750px" height="471px"
	 viewBox="0 0 750 471" style="enable-background:new 0 0 750 471;" xml:space="preserve">
<style type="text/css">
	.st0{fill:#231F20;}
</style>
<path class="st0" d="M424.8,4.8H316.6C189.3,4.8,84.5,99.9,84.5,237.5c0,125.8,104.8,229.2,232.1,228.6h108.2
	c125.8,0.6,240.7-102.8,240.7-228.6C665.5,99.9,550.8,4.8,424.8,4.8z M317.3,446.7c-116.4,0-210.7-94.5-210.7-211.2
	S200.9,24.3,317.3,24.3s210.7,94.5,210.7,211.2S433.7,446.6,317.3,446.7z"/>
<path id="Path" sketch:type="MSShapeGroup" class="st0" d="M184.1,235c0.1-57,35.6-105.6,85.7-124.8v249.8
	C219.7,340.6,184.1,292,184.1,235z M365.5,359.9V110c50.1,19.2,85.7,68,85.8,125C451.1,292,415.6,340.6,365.5,359.9z"/>
</svg>
