<?xml version="1.0" encoding="utf-8"?>
<!-- Generator: Adobe Illustrator 19.2.1, SVG Export Plug-In . SVG Version: 6.00 Build 0)  -->
<svg version="1.1" id="Layer_1" xmlns:sketch="http://www.bohemiancoding.com/sketch/ns"
	 xmlns="http://www.w3.org/2000/svg" xmlns:xlink="http://www.w3.org/1999/xlink" x="0px" y="0px" width="750px" height="471px"
	 viewBox="0 0 750 471" style="enable-background:new 0 0 750 471;" xml:space="preserve">
<style type="text/css">
	.st0{fill:#231F20;}
	.st1{fill:#231F20;stroke:#FFFFFF;stroke-width:5;stroke-miterlimit:10;}
</style>
<path id="Shape" sketch:type="MSShapeGroup" class="st0" d="M266.9,345.6l37.2-218.4h59.6l-37.2,218.4H266.9L266.9,345.6z"/>
<path id="path13" sketch:type="MSShapeGroup" class="st0" d="M541.4,132c-11.8-4.5-30.2-9.1-53.3-9.1c-58.8,0-100.3,29.7-100.6,72
	c-0.3,31.3,29.6,48.8,52.2,59.3c23.2,10.7,31,17.5,30.9,27.1c-0.1,14.6-18.5,21.3-35.6,21.3c-23.9,0-36.5-3.3-56-11.5l-7.7-3.5
	l-8.4,48.8c13.9,6.1,39.6,11.4,66.2,11.6c62.6,0,103.2-29.2,103.6-74.6c0.2-24.9-15.6-43.7-50-59.3c-20.7-10.1-33.6-16.8-33.5-27.1
	c0-9,10.8-18.7,34.1-18.7c19.4-0.3,33.6,3.9,44.5,8.4l5.4,2.6L541.4,132"/>
<path id="Path" sketch:type="MSShapeGroup" class="st0" d="M694.5,127.3h-45.9c-14.3,0-24.9,3.9-31.1,18.1l-88.3,200.1h62.5
	c0,0,10.3-26.9,12.5-32.8c6.8,0,67.6,0.1,76.2,0.1c1.8,7.7,7.2,32.7,7.2,32.7h55.2L694.5,127.3L694.5,127.3z M621.6,268.3
	c4.9-12.6,23.8-61,23.8-61c-0.3,0.6,4.9-12.6,7.9-20.9l4,18.8c0,0,11.4,52.1,13.8,63H621.6L621.6,268.3L621.6,268.3z"/>
<path id="path16" sketch:type="MSShapeGroup" class="st0" d="M216.4,127.3l-58.2,148.9l-6.2-30.2c-10.8-34.9-44.6-72.7-82.4-91.6
	l53.3,190.8l63-0.1l93.7-217.9L216.4,127.3"/>
<path id="path18" sketch:type="MSShapeGroup" class="st1" d="M106,124H10.1l-0.8,4.6c74.6,18.1,124,61.8,144.5,114.2L133,142.4
	C129.4,128.5,118.9,124.4,106,124"/>
</svg>
