<?xml version="1.0" encoding="utf-8"?>
<!-- Generator: Adobe Illustrator 20.1.0, SVG Export Plug-In . SVG Version: 6.00 Build 0)  -->
<svg version="1.1" id="Layer_1" xmlns="http://www.w3.org/2000/svg" xmlns:xlink="http://www.w3.org/1999/xlink" x="0px" y="0px"
	 width="49.6px" height="50px" viewBox="0 0 49.6 50" style="enable-background:new 0 0 49.6 50;" xml:space="preserve">
<path d="M9.7,23l2.6,3.2c0.5-0.1,1.1-0.1,1.6-0.1c0.6,0,1.2,0.1,1.9,0.2l2.7-3.2l1.6,0.7l-0.5,4.2c1,0.7,1.8,1.5,2.4,2.5l4.1-0.3
	l0.6,1.6l-3.1,2.6c0.2,1.2,0.2,2.4,0,3.6l3.1,2.7l-0.7,1.6l-4-0.5c-0.7,1-1.6,1.9-2.6,2.6l0.3,4L18.2,49l-2.5-3.1
	C15.1,46,14.5,46,13.9,46c-0.6,0-1.3-0.1-1.9-0.2l-2.5,3l-1.6-0.7l0.4-3.9c-1.1-0.7-1.9-1.7-2.6-2.7l-3.9,0.3l-0.7-1.7l3.1-2.5
	C4,36.5,4,35.2,4.3,34l-3-2.6l0.7-1.6l4,0.5c0.7-1,1.6-1.8,2.6-2.5l-0.3-4.1L9.7,23 M14.1,40.8c2.5,0,4.6-2.1,4.6-4.7
	c0-2.6-2.1-4.7-4.6-4.7s-4.6,2.1-4.6,4.7C9.5,38.7,11.6,40.8,14.1,40.8 M9.7,21.9c-0.1,0-0.3,0-0.4,0.1l-1.6,0.7
	C7.3,22.8,7,23.3,7,23.7l0.3,3.5c-0.7,0.5-1.4,1.1-1.9,1.9L2,28.7c-0.1,0-0.1,0-0.1,0c-0.5,0-0.8,0.3-1,0.7L0.2,31
	c-0.2,0.5-0.1,1,0.3,1.3L3,34.5c-0.1,0.9-0.2,1.9-0.1,2.8l-2.6,2.1C0,39.7-0.1,40.2,0,40.7l0.6,1.6C0.8,42.8,1.2,43,1.7,43
	c0.1,0,0.1,0,0.1,0l3.3-0.3c0.6,0.8,1.2,1.5,2,2l-0.3,3.3c-0.1,0.5,0.2,1,0.7,1.2L9,49.9C9.2,50,9.3,50,9.5,50
	c0.3,0,0.6-0.1,0.8-0.4l2.1-2.5c0.5,0.1,1,0.1,1.5,0.1c0.5,0,0.9,0,1.4-0.1l2.1,2.6c0.2,0.3,0.6,0.5,0.9,0.5c0.1,0,0.3,0,0.4-0.1
	l1.6-0.7c0.5-0.2,0.7-0.7,0.7-1.1L20.7,45c0.7-0.6,1.4-1.2,2-1.9l3.3,0.3c0.1,0,0.1,0,0.1,0c0.5,0,0.8-0.3,1-0.7l0.7-1.6
	c0.2-0.5,0.1-1-0.3-1.3l-2.6-2.3c0.1-0.9,0.1-1.7,0-2.7l2.7-2.2c0.4-0.3,0.5-0.8,0.3-1.3l-0.6-1.6c-0.2-0.5-0.6-0.7-1.1-0.7
	c-0.1,0-0.1,0-0.1,0l-3.5,0.3c-0.5-0.7-1.1-1.3-1.8-1.9l0.4-3.5c0.1-0.5-0.2-1-0.7-1.2L19,22.2c-0.2-0.1-0.3-0.1-0.5-0.1
	c-0.3,0-0.6,0.2-0.8,0.4l-2.3,2.7C15,25.1,14.5,25,14,25c-0.4,0-0.7,0-1.1,0.1l-2.2-2.8C10.4,22,10.1,21.9,9.7,21.9L9.7,21.9z
	 M14.1,39.7c-1.9,0-3.5-1.6-3.5-3.6s1.6-3.6,3.5-3.6s3.5,1.6,3.5,3.6C17.6,38.1,16.1,39.7,14.1,39.7L14.1,39.7z"/>
<polygon points="47.8,16.4 47.8,2 33.4,2 33.4,4 44.4,4 24.8,23.6 26.2,25 45.8,5.4 45.8,16.4 "/>
</svg>
