<?xml version="1.0" encoding="utf-8"?>
<!-- Generator: Adobe Illustrator 16.0.0, SVG Export Plug-In . SVG Version: 6.00 Build 0)  -->
<!DOCTYPE svg PUBLIC "-//W3C//DTD SVG 1.1//EN" "http://www.w3.org/Graphics/SVG/1.1/DTD/svg11.dtd">
<svg version="1.1" id="Layer_1" xmlns="http://www.w3.org/2000/svg" xmlns:xlink="http://www.w3.org/1999/xlink" x="0px" y="0px"
	 width="50px" height="51px" viewBox="0 0 50 51" style="enable-background:new 0 0 50 51;" xml:space="preserve">
<style type="text/css">
<![CDATA[
	.st0{fill-rule:evenodd;clip-rule:evenodd;}
]]>
</style>
<g>
	<g>
		<path class="st0" d="M35,6C27-2,14-2,6,6c-8,8-8,21,0,29c8,8,21,8,29,0C43,27,43,14,35,6z M33.6,33.6c-7.2,7.2-18.9,7.2-26.2,0
			c-7.2-7.2-7.2-18.9,0-26.2c7.2-7.2,18.9-7.2,26.2,0C40.8,14.6,40.8,26.4,33.6,33.6z M38,37l-2,2l12,12l2-2L38,37z"/>
	</g>
</g>
</svg>
