<?xml version="1.0" encoding="utf-8"?>
<!-- Generator: Adobe Illustrator 16.0.0, SVG Export Plug-In . SVG Version: 6.00 Build 0)  -->
<!DOCTYPE svg PUBLIC "-//W3C//DTD SVG 1.1//EN" "http://www.w3.org/Graphics/SVG/1.1/DTD/svg11.dtd">
<svg version="1.1" id="Layer_1" xmlns="http://www.w3.org/2000/svg" xmlns:xlink="http://www.w3.org/1999/xlink" x="0px" y="0px"
	 width="50px" height="37px" viewBox="0 0 50 37" style="enable-background:new 0 0 50 37;" xml:space="preserve">
<path d="M20.5,37c-0.7,0-1.8-0.3-2.9-1.5L1.6,20.4c-1-0.9-2.5-3.2-0.8-5.3l5.4-5.5C6.4,9.5,7,8.9,8.1,8.9c0.7,0,1.8,0.3,3,1.6
	l7.3,7.3c0.1,0.1,1.1,1.3,2.3,1.3c0.7,0,1.4-0.4,2.1-1.2L38.5,1c0.1-0.1,1-1,2.4-1c0.9,0,1.8,0.4,2.7,1.1l5.3,5.4
	c0.2,0.2,1,1,1.1,2.2c0,1-0.5,2.1-1.6,3L23.8,35.5C23.7,35.6,22.3,37,20.5,37z M7.4,10.9l-5.3,5.4c-1,1.3,0.6,2.7,0.7,2.8L19,34.3
	c0.5,0.6,1,0.9,1.6,0.9c0.9,0,1.7-0.7,2-1l24.7-23.8c0.5-0.4,1-1.1,1-1.7c0-0.5-0.4-0.9-0.4-0.9l-0.1-0.1l-5.3-5.3
	c-0.5-0.4-1-0.6-1.4-0.6c-0.7,0-1.2,0.5-1.2,0.5L24.1,19.1c-1,1.2-2.1,1.8-3.4,1.8c-2.1,0-3.6-1.8-3.7-1.9l-7.3-7.3
	c-0.6-0.7-1.2-1-1.7-1C7.8,10.7,7.5,10.9,7.4,10.9z"/>
</svg>
