<?xml version="1.0" encoding="utf-8"?>
<!-- Generator: Adobe Illustrator 16.0.0, SVG Export Plug-In . SVG Version: 6.00 Build 0)  -->
<!DOCTYPE svg PUBLIC "-//W3C//DTD SVG 1.1//EN" "http://www.w3.org/Graphics/SVG/1.1/DTD/svg11.dtd">
<svg version="1.1" id="Layer_1" xmlns="http://www.w3.org/2000/svg" xmlns:xlink="http://www.w3.org/1999/xlink" x="0px" y="0px"
	 width="49px" height="46px" viewBox="0 0 49 46" style="enable-background:new 0 0 49 46;" xml:space="preserve">
<g>
	<g>
		<path d="M46,0H3C1.3,0,0,1.3,0,3v40c0,1.7,1.3,3,3,3h43c1.7,0,3-1.3,3-3V3C49,1.3,47.7,0,46,0z M47,43c0,0.6-0.4,1-1,1H3
			c-0.6,0-1-0.4-1-1V12h45V43z M47,10H2V3c0-0.6,0.4-1,1-1h43c0.6,0,1,0.4,1,1V10z M23.2,36h-9.3c0-0.5,0.1-1.1,0.4-1.5
			c0.3-0.5,0.6-0.9,1.1-1.4c0.5-0.5,1-0.9,1.5-1.3c0.6-0.4,1.2-0.9,1.8-1.4c0.6-0.5,1.2-1,1.8-1.5c0.6-0.5,1.1-1.1,1.5-1.6
			c0.5-0.6,0.8-1.2,1.1-1.9c0.3-0.7,0.4-1.4,0.4-2.3c0-1-0.1-1.8-0.4-2.5c-0.3-0.7-0.7-1.3-1.2-1.8c-0.5-0.5-1.1-0.8-1.9-1.1
			c-0.7-0.2-1.5-0.4-2.3-0.4c-1.1,0-2,0.2-2.9,0.5c-0.8,0.3-1.6,0.8-2.2,1.3l1.2,1.5c0.3-0.2,0.5-0.4,0.8-0.6
			c0.3-0.2,0.6-0.3,0.9-0.4c0.3-0.1,0.6-0.2,1-0.3s0.6-0.1,0.9-0.1c1.4,0,2.3,0.3,3,1c0.6,0.7,0.9,1.7,0.9,3.1
			c0,0.7-0.1,1.4-0.4,1.9c-0.3,0.6-0.6,1.1-1.1,1.7c-0.5,0.5-1,1-1.6,1.5c-0.6,0.5-1.2,0.9-1.8,1.4c-0.6,0.5-1.2,0.9-1.8,1.4
			c-0.6,0.5-1.1,1-1.6,1.6c-0.5,0.6-0.8,1.2-1.1,1.8c-0.3,0.6-0.4,1.3-0.4,2.1v1.2h11.7V36z M31.7,36.2h-3.6v1.8h9.2v-1.8h-3.4V17.9
			h-1.8L28,20l0,2.1l3.8-2V36.2z"/>
	</g>
</g>
</svg>
