<?xml version="1.0" encoding="utf-8"?>
<!-- Generator: Adobe Illustrator 16.0.0, SVG Export Plug-In . SVG Version: 6.00 Build 0)  -->
<!DOCTYPE svg PUBLIC "-//W3C//DTD SVG 1.1//EN" "http://www.w3.org/Graphics/SVG/1.1/DTD/svg11.dtd">
<svg version="1.1" id="Layer_1" xmlns="http://www.w3.org/2000/svg" xmlns:xlink="http://www.w3.org/1999/xlink" x="0px" y="0px"
	 width="51px" height="51px" viewBox="0 0 51 51" style="enable-background:new 0 0 51 51;" xml:space="preserve">
<g>
	<g>
		<path d="M25.5,0C11.4,0,0,11.4,0,25.5c0,2.5,0.4,4.8,1,7.1V33h0.1c3.2,10.4,12.9,18,24.4,18C39.6,51,51,39.6,51,25.5
			C51,11.4,39.6,0,25.5,0z M48.4,20h-4.6C42,14.3,37.6,9.7,32,7.6V2.9C40.1,5.2,46.4,11.8,48.4,20z M49,25.5c0,1.5-0.2,3.1-0.4,4.5
			H44c0.4-1.5,0.6-3,0.6-4.5c0-1.2-0.1-2.4-0.3-3.5h4.6C48.9,23.2,49,24.3,49,25.5z M25.5,42.5c-9.4,0-17-7.6-17-17
			c0-9.4,7.6-17,17-17c9.4,0,17,7.6,17,17C42.5,34.9,34.9,42.5,25.5,42.5z M30,2.4V7c-1.4-0.4-3-0.6-4.5-0.6C24,6.5,22.5,6.7,21,7
			V2.4C22.5,2.1,24,2,25.5,2C27,2,28.6,2.1,30,2.4z M19,2.9v4.7C13.4,9.7,9,14.3,7.3,20H2.6C4.6,11.8,10.9,5.2,19,2.9z M7.3,31H2.7
			C2.2,29.2,2,27.4,2,25.5c0-1.2,0.1-2.4,0.3-3.5h4.6c-0.2,1.1-0.3,2.3-0.3,3.5C6.5,27.4,6.8,29.3,7.3,31z M3.2,33H8v0
			c2.1,4.8,6.1,8.6,11,10.4v4.7C11.6,46,5.7,40.3,3.2,33z M21,48.6V44c1.4,0.4,2.9,0.6,4.5,0.6c1.6,0,3.1-0.2,4.5-0.6v4.6
			c-1.5,0.3-3,0.4-4.5,0.4C24,49,22.5,48.9,21,48.6z M32,48.1v-4.7c5.3-1.9,9.4-6.1,11.4-11.3h4.7C45.9,39.8,39.7,45.9,32,48.1z"/>
	</g>
</g>
</svg>
