<?xml version="1.0" encoding="utf-8"?>
<!-- Generator: Adobe Illustrator 16.0.0, SVG Export Plug-In . SVG Version: 6.00 Build 0)  -->
<!DOCTYPE svg PUBLIC "-//W3C//DTD SVG 1.1//EN" "http://www.w3.org/Graphics/SVG/1.1/DTD/svg11.dtd">
<svg version="1.1" id="Layer_1" xmlns="http://www.w3.org/2000/svg" xmlns:xlink="http://www.w3.org/1999/xlink" x="0px" y="0px"
	 width="47px" height="47px" viewBox="0 0 47 47" style="enable-background:new 0 0 47 47;" xml:space="preserve">
<g>
	<g>
		<path d="M44,0H3C1.3,0,0,1.3,0,3v41c0,1.7,1.3,3,3,3h41c1.7,0,3-1.3,3-3V3C47,1.3,45.7,0,44,0z M45,44c0,0.6-0.4,1-1,1H3
			c-0.6,0-1-0.4-1-1V3c0-0.6,0.4-1,1-1h41c0.6,0,1,0.4,1,1V44z M18.9,26.7L9,36.6V29c0-0.6-0.4-1-1-1s-1,0.4-1,1v10c0,0.6,0.4,1,1,1
			h10c0.6,0,1-0.4,1-1c0-0.6-0.4-1-1-1h-7.5l9.8-9.8c0.4-0.4,0.4-1,0-1.4S19.3,26.4,18.9,26.7z M40,6H30c-0.6,0-1,0.4-1,1
			c0,0.6,0.4,1,1,1h7.6L27.3,18.3c-0.4,0.4-0.4,1,0,1.4c0.2,0.2,0.5,0.3,0.7,0.3s0.5-0.1,0.7-0.3L39,9.4V17c0,0.6,0.4,1,1,1
			s1-0.4,1-1V7C41,6.4,40.6,6,40,6z"/>
	</g>
</g>
</svg>
