<?xml version="1.0" encoding="utf-8"?>
<!-- Generator: Adobe Illustrator 16.0.0, SVG Export Plug-In . SVG Version: 6.00 Build 0)  -->
<!DOCTYPE svg PUBLIC "-//W3C//DTD SVG 1.1//EN" "http://www.w3.org/Graphics/SVG/1.1/DTD/svg11.dtd">
<svg version="1.1" id="Layer_1" xmlns="http://www.w3.org/2000/svg" xmlns:xlink="http://www.w3.org/1999/xlink" x="0px" y="0px"
	 width="50px" height="53px" viewBox="0 0 50 53" style="enable-background:new 0 0 50 53;" xml:space="preserve">
<g>
	<g>
		<path d="M40,3V1c0-0.6-0.4-1-1-1s-1,0.4-1,1v2H12V1c0-0.6-0.4-1-1-1s-1,0.4-1,1v2H0v9v13v2v11v2v13h16h2h14h2h16V40v-2V27v-2V12V3
			H40z M16,51H2V40h14V51z M16,38H2V27h14V38z M16,25H2V14h14V25z M32,51H18V40h14V51z M32,38H18V27h14V38z M32,25H18V14h14V25z
			 M48,51H34V40h14V51z M48,38H34V27h14V38z M48,25H34V14h14V25z M48,12H34h-2H18h-2H2V5h8v2c0,0.6,0.4,1,1,1s1-0.4,1-1V5h26v2
			c0,0.6,0.4,1,1,1s1-0.4,1-1V5h8V12z M37.2,36.6c0.2,0.2,0.5,0.3,0.7,0.3s0.5-0.1,0.7-0.3l2.9-2.9l2.9,2.9c0.2,0.2,0.5,0.3,0.7,0.3
			s0.5-0.1,0.7-0.3c0.4-0.4,0.4-1,0-1.4l-2.9-2.9l2.9-2.9c0.4-0.4,0.4-1,0-1.4c-0.4-0.4-1-0.4-1.4,0l-2.9,2.9L38.6,28
			c-0.4-0.4-1-0.4-1.4,0c-0.4,0.4-0.4,1,0,1.4l2.9,2.9l-2.9,2.9C36.8,35.6,36.8,36.2,37.2,36.6z"/>
	</g>
</g>
</svg>
