<?xml version="1.0" encoding="utf-8"?>
<!-- Generator: Adobe Illustrator 16.0.0, SVG Export Plug-In . SVG Version: 6.00 Build 0)  -->
<!DOCTYPE svg PUBLIC "-//W3C//DTD SVG 1.1//EN" "http://www.w3.org/Graphics/SVG/1.1/DTD/svg11.dtd">
<svg version="1.1" id="Layer_1" xmlns="http://www.w3.org/2000/svg" xmlns:xlink="http://www.w3.org/1999/xlink" x="0px" y="0px"
	 width="52px" height="46.6px" viewBox="0 0 52 46.6" style="enable-background:new 0 0 52 46.6;" xml:space="preserve">
<style type="text/css">
<![CDATA[
	.st0{fill-rule:evenodd;clip-rule:evenodd;}
]]>
</style>
<g>
	<g>
		<path d="M51.6,3.8c-0.1-0.1-0.2-0.2-0.3-0.3L51,3.4c-12.2-7-23.2-1-24.9,0l-0.1,0C12.7-4.3,0.9,3.5,0.8,3.5
			c-0.1,0-0.1,0.1-0.1,0.1C0.3,3.8,0,4.2,0,4.6v37c0,0.6,0.4,1,1,1c0,0,0.1,0,0.1,0c0.2,0.1,0.5,0,0.7-0.1c0.1-0.1,11-5.6,23.4-0.1
			l0.3,0.1c0.1,0.1,0.3,0.1,0.4,0.1c0,0,0.1,0,0.1,0c0,0,0,0,0,0c0,0,0.1,0,0.1,0c0,0,0,0,0,0c0.2,0.1,0.5,0,0.7-0.1
			c0.1-0.1,11-5.6,23.4-0.1l0.3,0.1c0.1,0.1,0.3,0.1,0.4,0.1c0,0,0.1,0,0.1,0c0,0,0,0,0,0c0,0,0.1,0,0.1,0c0,0,0,0,0,0
			c0.5-0.1,0.8-0.5,0.8-1v-37C52,4.3,51.8,4,51.6,3.8z M25,40.1c-10.6-4.3-19.9-1.2-23,0.1v-35c0.9-0.6,11.3-6.8,23-0.1l0,0V40.1z
			 M50,40.1c-10.6-4.3-19.9-1.2-23,0.1v-35c0.8-0.5,8.5-5.1,18-2.2v6.7c0,0.6,0.4,1,1,1c0.6,0,1-0.4,1-1v-6c1,0.4,2,0.9,3,1.5l0,0
			V40.1z M21.9,29.2l-0.2-0.1c-8.7-3.9-16.1-0.1-16.4,0.1c-0.5,0.3-0.7,0.9-0.4,1.3c0.3,0.5,0.9,0.7,1.3,0.4c0.1,0,7-3.5,14.7,0
			l0.1,0.1c0.1,0.1,0.3,0.1,0.4,0.1c0.4,0,0.7-0.2,0.9-0.6C22.6,30,22.4,29.4,21.9,29.2z M21.9,21.2l-0.2-0.1
			c-8.7-3.9-16.1-0.1-16.4,0.1c-0.5,0.3-0.7,0.9-0.4,1.3c0.3,0.5,0.9,0.7,1.3,0.4c0.1,0,7-3.5,14.7,0l0.1,0.1
			c0.1,0.1,0.3,0.1,0.4,0.1c0.4,0,0.7-0.2,0.9-0.6C22.6,22,22.4,21.5,21.9,21.2z M21.9,13.2l-0.2-0.1c-8.7-3.9-16.1-0.1-16.4,0.1
			c-0.5,0.3-0.7,0.9-0.4,1.3c0.3,0.5,0.9,0.7,1.3,0.4c0.1,0,7-3.5,14.7,0l0.1,0.1c0.1,0.1,0.3,0.1,0.4,0.1c0.4,0,0.7-0.2,0.9-0.6
			C22.6,14,22.4,13.5,21.9,13.2z M46.8,29.1l-0.2-0.1c-8.6-3.9-16-0.1-16.3,0.1c-0.5,0.3-0.7,0.9-0.4,1.3c0.3,0.5,0.9,0.7,1.3,0.4
			c0.1,0,6.9-3.5,14.6,0l0.1,0c0.1,0.1,0.3,0.1,0.4,0.1c0.4,0,0.7-0.2,0.9-0.6C47.5,30,47.3,29.4,46.8,29.1z M30.7,23.1
			c0.2,0,0.3,0,0.5-0.1c0.1,0,6.9-3.5,14.6-0.1L46,23c0.5,0.2,1.1,0,1.3-0.5c0.2-0.5,0-1.1-0.5-1.3l-0.1-0.1
			c-8.6-3.9-16-0.1-16.3,0.1c-0.5,0.3-0.7,0.9-0.4,1.3C30,22.9,30.4,23.1,30.7,23.1z M30.7,15.2c0.2,0,0.3,0,0.5-0.1
			c0.1,0,6.9-3.5,14.7,0c0,0,0.1,0,0.1,0c0.5,0.2,1,0,1.3-0.5c0.2-0.5,0-1.1-0.5-1.3l-0.1,0c-8.6-3.9-16-0.1-16.3,0.1
			c-0.5,0.3-0.7,0.9-0.4,1.3C30,15,30.4,15.2,30.7,15.2z M51.3,44.7L51,44.6c-12.4-5.6-23.2-0.8-24.9,0l-0.1,0
			c-13.2-5.9-24.6-0.1-25.1,0.1c-0.5,0.3-0.7,0.9-0.4,1.3c0.3,0.5,0.9,0.7,1.3,0.4c0.1-0.1,11-5.6,23.4-0.1l0.3,0.1
			c0.1,0.1,0.3,0.1,0.4,0.1c0.1,0,0.2,0,0.3,0c0.2,0.1,0.5,0,0.7-0.1c0.1-0.1,11-5.6,23.4-0.1l0.3,0.1c0.1,0.1,0.3,0.1,0.4,0.1
			c0.4,0,0.7-0.2,0.9-0.6C52,45.5,51.8,44.9,51.3,44.7z"/>
	</g>
</g>
</svg>
