<?xml version="1.0" encoding="utf-8"?>
<!-- Generator: Adobe Illustrator 16.0.0, SVG Export Plug-In . SVG Version: 6.00 Build 0)  -->
<!DOCTYPE svg PUBLIC "-//W3C//DTD SVG 1.1//EN" "http://www.w3.org/Graphics/SVG/1.1/DTD/svg11.dtd">
<svg version="1.1" id="Layer_1" xmlns="http://www.w3.org/2000/svg" xmlns:xlink="http://www.w3.org/1999/xlink" x="0px" y="0px"
	 width="52px" height="52px" viewBox="0 0 52 52" style="enable-background:new 0 0 52 52;" xml:space="preserve">
<path d="M28,52h-4c-1.7,0-3-1.3-3-3V31H3c-1.7,0-3-1.3-3-3v-4c0-1.7,1.3-3,3-3h18V3c0-1.7,1.3-3,3-3h4c1.7,0,3,1.3,3,3v18h18
	c1.7,0,3,1.3,3,3v4c0,1.7-1.3,3-3,3H31v18C31,50.7,29.7,52,28,52z M3,23c-0.6,0-1,0.5-1,1v4c0,0.6,0.4,1,1,1h20v20c0,0.6,0.4,1,1,1
	h4c0.6,0,1-0.4,1-1V29h20c0.6,0,1-0.4,1-1v-4c0-0.6-0.4-1-1-1H29V3c0-0.6-0.4-1-1-1h-4c-0.6,0-1,0.4-1,1v20H3z"/>
</svg>
