<?xml version="1.0" encoding="utf-8"?>
<!-- Generator: Adobe Illustrator 16.0.0, SVG Export Plug-In . SVG Version: 6.00 Build 0)  -->
<!DOCTYPE svg PUBLIC "-//W3C//DTD SVG 1.1//EN" "http://www.w3.org/Graphics/SVG/1.1/DTD/svg11.dtd">
<svg version="1.1" id="Layer_1" xmlns="http://www.w3.org/2000/svg" xmlns:xlink="http://www.w3.org/1999/xlink" x="0px" y="0px"
	 width="50px" height="46px" viewBox="0 0 50 46" style="enable-background:new 0 0 50 46;" xml:space="preserve">
<style type="text/css">
<![CDATA[
	.st0{fill-rule:evenodd;clip-rule:evenodd;}
]]>
</style>
<g>
	<g>
		<path class="st0" d="M1.9,8.8C1.9,5.6,4.7,3,8.2,3C8.6,3,9,3,9.5,3.1L11,1.5C10.1,1.2,9.2,1,8.2,1C3.6,1,0,4.5,0,8.8
			C0,10,0.3,11,0.7,12l1.5-1.5C2,10,1.9,9.4,1.9,8.8z M25,0C12.3,0,2,10.3,2,23c0,12.7,10.3,23,23,23s23-10.3,23-23
			C48,10.3,37.7,0,25,0z M25,44C13.4,44,4,34.6,4,23C4,11.4,13.4,2,25,2s21,9.4,21,21C46,34.6,36.6,44,25,44z M41.8,1
			c-1,0-2,0.2-2.9,0.5l1.6,1.6C41,3,41.4,3,41.8,3c3.4,0,6.2,2.6,6.2,5.9c0,0.6-0.1,1.1-0.3,1.7l1.5,1.5c0.5-1,0.7-2,0.7-3.2
			C50,4.5,46.4,1,41.8,1z M25,23h-9v2h11V7h-2V23z"/>
	</g>
</g>
</svg>
