<?xml version="1.0" encoding="utf-8"?>
<!-- Generator: Adobe Illustrator 19.2.1, SVG Export Plug-In . SVG Version: 6.00 Build 0)  -->
<svg version="1.1" id="Layer_1" xmlns="http://www.w3.org/2000/svg" xmlns:xlink="http://www.w3.org/1999/xlink" x="0px" y="0px"
	 width="37px" height="49px" viewBox="0 0 37 49" style="enable-background:new 0 0 37 49;" xml:space="preserve">
<style type="text/css">
	.st0{fill:#231F20;}
</style>
<g>
	<path class="st0" d="M12.5,14H8.6l-0.2,0.2c-1.5,1.5-3.6,2.6-5.1,3.2l-0.6,0.3v4.4l1.3-0.5c1.3-0.4,2.3-0.9,3.3-1.5l0.1,0h0.1
		c0,0,0.1,0,0.1-0.1L8,19.4v14.2H2.6v4.1h15.1v-4.1h-5.2V14z"/>
	<path class="st0" d="M23.8,33.5l0.7-1.5c0.6-0.9,1.1-1.6,1.9-2.4l3-3c1.8-1.8,2.9-3.1,3.5-4.1c0.6-1.1,1-2.4,1-3.5
		c0-1-0.2-1.9-0.8-3c-0.4-0.8-1.2-1.5-2.5-2c-0.9-0.4-1.9-0.6-3.4-0.6c-0.8,0-1.8,0-2.9,0.5c-1.2,0.3-2.4,0.6-3.8,1.3L20,15.4v4.3
		l1.4-0.6c0.4-0.2,0.8-0.4,1.1-0.5c0.5-0.2,0.9-0.4,1.2-0.5c0.2-0.1,0.5-0.2,0.8-0.2c0.2,0,0.5-0.1,0.7-0.1c0.5-0.2,1.1-0.2,1.6-0.2
		c0.8,0,1.5,0.2,2,0.6c0.4,0.4,0.6,0.8,0.6,1.4c0,0.3-0.1,0.6-0.2,0.9c0,0.1-0.1,0.2-0.1,0.4c-0.1,0.3-0.5,0.8-1.9,2.4
		c-1,1.2-1.7,1.9-2,2.2l-1.5,1.5c-0.7,0.7-1.4,1.5-2.3,2.6c-0.8,0.9-1.3,1.7-1.6,2.6c-0.3,0.9-0.5,1.5-0.5,2.2v3.4h15.1v-4.2H23.8z"
		/>
</g>
</svg>
