<?xml version="1.0" encoding="utf-8"?>
<!-- Generator: Adobe Illustrator 19.2.1, SVG Export Plug-In . SVG Version: 6.00 Build 0)  -->
<svg version="1.1" id="Layer_1" xmlns="http://www.w3.org/2000/svg" xmlns:xlink="http://www.w3.org/1999/xlink" x="0px" y="0px"
	 width="37px" height="49px" viewBox="0 0 37 49" style="enable-background:new 0 0 37 49;" xml:space="preserve">
<path d="M9.9,22.5c0.5-0.9,0.7-1.9,0.7-3.2v-3.5c0-1.4,0.2-2.6,0.7-3.5c0.5-0.9,1.2-1.6,2.3-1.9l-0.7-2.5c-2.1,0.7-3.7,1.6-4.7,3
	c-0.9,1.4-1.4,3-1.4,4.9v3.5c0,1.2-0.4,2.1-0.9,2.8c-0.5,0.7-1.4,1.1-2.5,1.1v3c1.1,0,1.9,0.4,2.5,1.1c0.5,0.7,0.9,1.6,0.9,2.8v3.5
	c0,1.9,0.5,3.5,1.4,4.9c0.9,1.4,2.5,2.3,4.7,3l0.9-2.5c-1.1-0.4-1.9-1.1-2.3-1.9c-0.5-0.9-0.7-2.1-0.7-3.5V30c0-1.2-0.2-2.3-0.7-3.2
	C9.5,26,8.8,25.3,8,24.8C8.8,24.1,9.5,23.4,9.9,22.5z"/>
<path d="M23.2,10.2c1.1,0.4,1.9,1.1,2.3,1.9c0.5,0.9,0.7,2.1,0.7,3.5v3.5c0,1.2,0.2,2.3,0.7,3.2s1.2,1.6,2.3,2.1
	c-1.1,0.5-1.8,1.2-2.3,2.1s-0.7,1.9-0.7,3.2v3.5c0,1.4-0.2,2.6-0.7,3.5s-1.2,1.6-2.3,1.9l0.9,2.5c2.1-0.7,3.7-1.6,4.7-3
	c0.9-1.4,1.4-3,1.4-4.9v-3.5c0-1.2,0.4-2.1,0.9-2.8c0.5-0.7,1.4-1.1,2.5-1.1v-3c-1.1,0-1.9-0.4-2.5-1.1c-0.5-0.7-0.9-1.6-0.9-2.8
	v-3.5c0-1.9-0.5-3.5-1.4-4.9c-0.9-1.4-2.5-2.3-4.7-3L23.2,10.2z"/>
</svg>
