<?xml version="1.0" encoding="utf-8"?>
<!-- Generator: Adobe Illustrator 19.2.1, SVG Export Plug-In . SVG Version: 6.00 Build 0)  -->
<svg version="1.1" id="Layer_1" xmlns="http://www.w3.org/2000/svg" xmlns:xlink="http://www.w3.org/1999/xlink" x="0px" y="0px"
	 width="37px" height="49px" viewBox="0 0 37 49" style="enable-background:new 0 0 37 49;" xml:space="preserve">
<path d="M30.1,17.9l2.4-2.4l-2.8-2.8l-2.4,2.4c-2.4-1.9-5.5-3-8.8-3c-8.1,0-14.6,6.5-14.6,14.6c0,3.3,1.1,6.3,3,8.8l-2.2,2.2
	l2.8,2.8l2.2-2.2c2.4,1.9,5.5,3,8.8,3c8,0,14.6-6.5,14.6-14.6C33.1,23.4,32,20.4,30.1,17.9z M7.9,26.7c0-5.8,4.8-10.6,10.6-10.6
	c2.2,0,4.2,0.7,5.9,1.8L9.7,32.6C8.6,30.9,7.9,28.9,7.9,26.7z M18.5,37.3c-2.2,0-4.2-0.7-5.9-1.8l14.7-14.7c1.2,1.7,1.8,3.7,1.8,5.9
	C29.1,32.5,24.3,37.3,18.5,37.3z"/>
</svg>
