<?xml version="1.0" encoding="utf-8"?>
<!-- Generator: Adobe Illustrator 19.2.1, SVG Export Plug-In . SVG Version: 6.00 Build 0)  -->
<svg version="1.1" id="Layer_1" xmlns="http://www.w3.org/2000/svg" xmlns:xlink="http://www.w3.org/1999/xlink" x="0px" y="0px"
	 width="37px" height="49px" viewBox="0 0 37 49" style="enable-background:new 0 0 37 49;" xml:space="preserve">
<path d="M11.2,22.2c0.6-1,0.8-2.2,0.8-3.7v-4c0-1.6,0.2-3,0.8-4c0.6-1,1.4-1.8,2.6-2.2l-0.8-2.9c-2.4,0.8-4.3,1.8-5.4,3.4
	c-1,1.6-1.6,3.4-1.6,5.6v4c0,1.4-0.5,2.4-1,3.2S5,23,3.7,23v3.4c1.3,0,2.2,0.5,2.9,1.3c0.6,0.8,1,1.8,1,3.2v4c0,2.2,0.6,4,1.6,5.6
	s2.9,2.6,5.4,3.4l1-2.9c-1.3-0.5-2.2-1.3-2.6-2.2c-0.6-1-0.8-2.4-0.8-4v-4.1c0-1.4-0.2-2.6-0.8-3.7c-0.7-0.9-1.5-1.7-2.4-2.3
	C10,24,10.8,23.2,11.2,22.2z"/>
<path d="M22,8.1c1.3,0.5,2.2,1.3,2.6,2.2c0.6,1,0.8,2.4,0.8,4v4c0,1.4,0.2,2.6,0.8,3.7s1.4,1.8,2.6,2.4c-1.3,0.6-2.1,1.4-2.6,2.4
	c-0.6,1-0.8,2.2-0.8,3.7v4c0,1.6-0.2,3-0.8,4c-0.6,1-1.4,1.8-2.6,2.2l1,2.9c2.4-0.8,4.3-1.8,5.4-3.4c1-1.6,1.6-3.4,1.6-5.6v-4
	c0-1.4,0.5-2.4,1-3.2c0.6-0.8,1.6-1.3,2.9-1.3v-3.4c-1.3,0-2.2-0.5-2.9-1.3c-0.6-0.8-1-1.8-1-3.2v-4c0-2.2-0.6-4-1.6-5.6
	c-1-1.6-2.9-2.6-5.4-3.4L22,8.1z"/>
</svg>
