<?xml version="1.0" encoding="utf-8"?>
<!-- Generator: Adobe Illustrator 19.2.1, SVG Export Plug-In . SVG Version: 6.00 Build 0)  -->
<svg version="1.1" id="Layer_1" xmlns="http://www.w3.org/2000/svg" xmlns:xlink="http://www.w3.org/1999/xlink" x="0px" y="0px"
	 width="37px" height="49px" viewBox="0 0 37 49" style="enable-background:new 0 0 37 49;" xml:space="preserve">
<style type="text/css">
	.st0{fill:#231F20;}
</style>
<path class="st0" d="M28.2,29.9V13.7h-4.5c-0.5,0-0.7,0-0.9,0c-1.4-0.2-2.5-0.2-3.2-0.2c-2.5,0.2-4.7,0.7-6.5,2
	c-1.8,1.1-3.2,2.9-4.1,5c-0.9,2-1.6,4.5-1.6,7c0,3.4,0.9,6.1,2.5,7.7c1.6,2,3.4,2.9,5.6,2.9c1.4,0,3.2-0.5,4.7-1.6
	c0.9-0.5,1.8-1.1,2.5-2c0.2,0.9,0.2,1.6,0.5,2l0.2,0.9h6.1l-0.7-1.6C28.4,34.4,28.2,32.3,28.2,29.9z M13.5,26.9
	c0-2.7,0.7-4.7,1.8-6.1c1.4-1.4,2.7-2,4.5-2c0.7,0,1.6,0,2.5,0.2v7.9c-0.9,1.6-2,2.9-3.2,4.1c-1.1,0.9-2,1.4-2.9,1.4
	c-0.2,0-0.9,0-1.8-1.1C13.8,30.3,13.5,29,13.5,26.9z"/>
</svg>
