<?xml version="1.0" encoding="utf-8"?>
<!-- Generator: Adobe Illustrator 16.0.0, SVG Export Plug-In . SVG Version: 6.00 Build 0)  -->
<!DOCTYPE svg PUBLIC "-//W3C//DTD SVG 1.1//EN" "http://www.w3.org/Graphics/SVG/1.1/DTD/svg11.dtd">
<svg version="1.1" id="Layer_1" xmlns="http://www.w3.org/2000/svg" xmlns:xlink="http://www.w3.org/1999/xlink" x="0px" y="0px"
	 width="50px" height="48px" viewBox="0 0 50 48" style="enable-background:new 0 0 50 48;" xml:space="preserve">
<g>
	<g>
		<path d="M26,13h-2v17h2V13z M24,36h2v-4h-2V36z M48,46h-5v2h7v-7h-2V46z M19,48h12v-2H19V48z M2,41H0v7h7v-2H2V41z M2,18H0v12h2
			V18z M0,7h2V2h5V0H0V7z M19,2h12V0H19V2z M43,0v2h5v5h2V0H43z M48,30h2V18h-2V30z"/>
	</g>
</g>
</svg>
